<svg width="48" height="48" viewBox="0 0 48 48" fill="none" xmlns="http://www.w3.org/2000/svg">
<g clip-path="url(#clip0_1_355)">
<path fill-rule="evenodd" clip-rule="evenodd" d="M24.0061 0.000803842C24.015 0.00392656 24.2407 0.461404 24.5082 1.02037C24.7758 1.57777 25.0148 2.07273 25.0403 2.11957C25.0657 2.1664 25.1374 2.30693 25.1987 2.43183C25.2614 2.55674 25.4243 2.87994 25.5619 3.15005C25.6993 3.42017 25.9085 3.84174 26.0266 4.08687C26.1446 4.33201 26.2897 4.63022 26.3509 4.75045C26.4108 4.87067 26.5093 5.06741 26.5691 5.18762C26.6304 5.30785 26.7007 5.44837 26.7275 5.4999C26.7545 5.55142 26.8501 5.74191 26.9398 5.92147C27.0309 6.10102 27.2029 6.44608 27.3224 6.68653C27.4404 6.92698 27.6004 7.25018 27.6765 7.40476C27.7528 7.55933 27.9097 7.87472 28.0248 8.10736C28.1399 8.33845 28.2639 8.58825 28.3013 8.66164C28.3371 8.73503 28.3864 8.82871 28.4088 8.87242C28.4313 8.91458 28.5 9.05198 28.5628 9.17689C28.6241 9.3018 28.8169 9.69527 28.9917 10.0513C29.1666 10.4072 29.3579 10.7976 29.4177 10.9178C29.4775 11.038 29.6045 11.2972 29.7016 11.4955C29.7988 11.6938 29.9362 11.9702 30.008 12.1122C30.0797 12.2544 30.2113 12.5104 30.2994 12.6821C30.3877 12.8539 30.546 13.1631 30.6506 13.3691C30.7553 13.5753 30.8958 13.8562 30.9645 13.9937C31.0317 14.131 31.1632 14.395 31.2559 14.5792C31.3486 14.7635 31.5339 15.1334 31.6669 15.3989C31.8014 15.6643 31.93 15.9219 31.9554 15.9688C31.9793 16.0157 32.042 16.1421 32.0944 16.2499C32.1466 16.3576 32.2199 16.5044 32.2573 16.5777C32.2961 16.6511 32.3872 16.8338 32.462 16.9836C32.5368 17.1336 32.61 17.2756 32.6264 17.2991C32.6413 17.3241 32.6682 17.3506 32.6862 17.3615C32.7056 17.3708 32.8281 17.3927 32.9597 17.4084C33.0912 17.424 33.2959 17.4473 33.4154 17.4598C33.5351 17.4723 33.7099 17.4942 33.804 17.5067C33.8982 17.5192 34.1718 17.5551 34.4093 17.5848C34.647 17.616 35.0296 17.6692 35.2567 17.7019C35.4854 17.7363 35.8052 17.7862 35.9666 17.8112C36.1295 17.8377 36.3701 17.8784 36.5017 17.9048C36.6332 17.9298 36.8722 17.972 37.0322 17.9986C37.1922 18.025 37.4104 18.0641 37.5179 18.0844C37.624 18.1047 37.8796 18.1563 38.0858 18.2C38.2905 18.2421 38.5402 18.2968 38.6388 18.3186C38.7374 18.3405 38.9586 18.3905 39.132 18.4279C39.3054 18.467 39.5668 18.5294 39.7148 18.57C39.8629 18.6091 40.105 18.6731 40.2528 18.7106C40.4009 18.7495 40.7132 18.837 40.9478 18.9057C41.1825 18.976 41.5112 19.0759 41.6801 19.1321C41.8489 19.1868 42.1882 19.3008 42.4349 19.3851C42.6814 19.4709 42.9968 19.5865 43.1373 19.6443C43.2763 19.702 43.5423 19.816 43.7276 19.8988C43.913 19.9799 44.2282 20.1251 44.43 20.2204C44.6318 20.314 44.85 20.4187 44.9157 20.4545C44.9815 20.4889 45.1428 20.5795 45.2745 20.6575C45.4059 20.734 45.6077 20.8574 45.7228 20.9307C45.8379 21.0042 45.9829 21.0978 46.0441 21.1415C46.1053 21.1852 46.2429 21.2867 46.3505 21.368C46.4565 21.4492 46.6075 21.5694 46.6853 21.6349C46.7614 21.7005 46.9334 21.8692 47.0664 22.0112C47.1979 22.1533 47.3532 22.3297 47.4086 22.4016C47.4654 22.4749 47.5535 22.6014 47.6059 22.6827C47.6582 22.7638 47.7418 22.9184 47.7912 23.0262C47.8405 23.1339 47.9018 23.2946 47.9257 23.3852C47.9511 23.4758 47.978 23.6023 47.9884 23.6663C47.9989 23.7381 48.0019 23.8989 47.9989 24.0801C47.993 24.336 47.987 24.3986 47.9525 24.5329C47.9317 24.6187 47.8913 24.7483 47.8629 24.8217C47.8345 24.8951 47.7896 24.9997 47.7628 25.0559C47.7359 25.112 47.6865 25.2026 47.6537 25.2588C47.6193 25.315 47.5416 25.4306 47.4803 25.5149C47.4176 25.6007 47.2755 25.7725 47.1649 25.8975C47.0544 26.0208 46.896 26.1863 46.8137 26.2628C46.7316 26.3409 46.5762 26.472 46.47 26.5547C46.3624 26.6375 46.192 26.7655 46.0889 26.839C45.9858 26.9123 45.7676 27.056 45.6032 27.159C45.4388 27.2621 45.1937 27.4073 45.0577 27.4807C44.9217 27.554 44.6557 27.6883 44.4674 27.7773C44.2775 27.8679 43.9622 28.0131 43.765 28.1005C43.5677 28.1879 43.2717 28.3144 43.1074 28.3816C42.943 28.4487 42.5454 28.5924 42.2256 28.7017C41.9058 28.8094 41.3977 28.9733 41.0973 29.0623C40.7968 29.1529 40.2693 29.2996 39.924 29.3886C39.5788 29.4792 39.1678 29.5791 39.0124 29.6135C38.857 29.6479 38.5671 29.7103 38.3698 29.754C38.1725 29.7961 37.9409 29.8461 37.8541 29.8633C37.7675 29.8805 37.6061 29.9117 37.4955 29.9336C37.3849 29.9554 37.1652 29.9944 37.0098 30.021C36.8543 30.0476 36.5943 30.0929 36.4344 30.1225C36.2745 30.1521 35.9382 30.2083 35.6871 30.2459C35.4361 30.2848 35.1103 30.3333 34.9623 30.3551C34.8143 30.377 34.5214 30.416 34.3121 30.4426C34.103 30.469 33.8578 30.5004 33.7666 30.5129C33.6756 30.5254 33.4946 30.5471 33.3632 30.5612C33.2317 30.5737 33.027 30.5987 32.9073 30.6128C32.6906 30.6408 32.6906 30.6408 32.6459 30.6955C32.6204 30.7267 32.5547 30.8454 32.4978 30.9593C32.441 31.0749 32.3394 31.2779 32.2721 31.4106C32.2049 31.5433 32.0973 31.7572 32.0331 31.8868C31.9688 32.0148 31.8284 32.2959 31.7193 32.5113C31.6102 32.7252 31.4741 32.997 31.4174 33.1125C31.3605 33.228 31.1842 33.584 31.0257 33.9009C30.8673 34.218 30.7223 34.5067 30.703 34.5411C30.685 34.5754 30.6312 34.6801 30.5834 34.7753C30.5355 34.8706 30.4429 35.0516 30.3771 35.1813C30.3114 35.3093 30.2127 35.5029 30.1575 35.6106C30.1022 35.7183 29.9692 35.9807 29.863 36.1961C29.7554 36.4101 29.6 36.727 29.5148 36.8988C29.4312 37.0705 29.2907 37.3547 29.2039 37.5311C29.1188 37.7076 28.9888 37.9714 28.9171 38.1166C28.8452 38.2618 28.7213 38.5163 28.6405 38.6787C28.5599 38.8411 28.4732 39.0175 28.4462 39.069C28.4194 39.1206 28.3417 39.2752 28.2714 39.4125C28.2012 39.55 28.0876 39.7779 28.0173 39.9199C27.9471 40.0621 27.8141 40.3322 27.7214 40.5211C27.6287 40.71 27.5242 40.9208 27.4897 40.9895C27.4554 41.0582 27.3792 41.2096 27.3224 41.3252C27.2641 41.4407 27.1655 41.6406 27.1011 41.7702C27.0369 41.8982 26.8845 42.2043 26.7605 42.4493C26.6379 42.6945 26.472 43.024 26.3913 43.1832C26.3106 43.3425 26.1671 43.6329 26.0715 43.8312C25.9773 44.0295 25.8294 44.3308 25.7442 44.5025C25.659 44.6743 25.5679 44.857 25.5409 44.9085C25.5141 44.96 25.4169 45.149 25.3271 45.3301C25.2361 45.5112 25.112 45.7563 25.0492 45.8765C24.9865 45.9968 24.7324 46.5229 24.4828 47.0476C24.1032 47.8454 24.0255 48 24.0001 48C23.9791 48 23.9583 47.9813 23.9404 47.9454C23.9254 47.9157 23.7281 47.5004 23.5024 47.0242C23.2767 46.5479 23.0556 46.0873 23.0107 46.0014C22.9659 45.9156 22.8777 45.7438 22.8164 45.619C22.7551 45.494 22.5878 45.1646 22.4457 44.8851C22.3038 44.6056 22.0945 44.184 21.981 43.9483C21.8674 43.7126 21.7194 43.4096 21.6523 43.2769C21.5864 43.1442 21.3921 42.757 21.2203 42.4181C21.0499 42.0794 20.8048 41.5875 20.6748 41.3252C20.5447 41.063 20.4043 40.7787 20.361 40.6929C20.3176 40.6069 20.201 40.3681 20.0994 40.162C19.9978 39.9559 19.8334 39.6265 19.7332 39.4282C19.6331 39.2299 19.5032 38.9738 19.4463 38.8582C19.3881 38.7428 19.2804 38.5241 19.2071 38.3743C19.1325 38.2243 18.986 37.9245 18.8814 37.7107C18.7767 37.4952 18.6452 37.2298 18.5899 37.1173C18.5346 37.0049 18.4195 36.7738 18.3359 36.6021C18.2522 36.4303 18.1327 36.1884 18.0698 36.0634C18.0086 35.9385 17.889 35.7028 17.8054 35.5404C17.7217 35.378 17.6261 35.1907 17.5916 35.1267C17.5588 35.0626 17.4557 34.8581 17.3614 34.6738C17.2673 34.4896 17.1239 34.2039 17.0432 34.0414C16.9624 33.8791 16.8384 33.6293 16.7667 33.4873C16.6949 33.3451 16.5844 33.1234 16.52 32.9954C16.4558 32.8657 16.3423 32.6378 16.266 32.488C16.1898 32.338 16.0911 32.1413 16.0462 32.0508C16.0015 31.9602 15.9132 31.7853 15.8505 31.6604C15.7893 31.5355 15.7041 31.3669 15.6622 31.2857C15.6204 31.2045 15.5441 31.0499 15.4918 30.9438C15.441 30.8375 15.3752 30.7236 15.2946 30.6361L15.0629 30.6081C14.9359 30.594 14.7371 30.5705 14.6221 30.5596C14.507 30.5471 14.3321 30.5254 14.2335 30.5129C14.1348 30.4988 13.8584 30.4644 13.6207 30.4332C13.3816 30.4036 13.002 30.3504 12.7764 30.3176C12.5507 30.2833 12.2473 30.238 12.1038 30.2161C11.9603 30.1943 11.7347 30.1553 11.6031 30.1303C11.4716 30.1053 11.2161 30.06 11.0352 30.0288C10.8544 29.9976 10.5824 29.9491 10.4299 29.9195C10.2775 29.8899 10.0354 29.8414 9.89193 29.8118C9.74845 29.7822 9.51978 29.7321 9.38379 29.7009C9.24779 29.6697 9.04304 29.6244 8.92797 29.5994C8.81289 29.5744 8.58124 29.5198 8.41235 29.4761C8.24347 29.4339 7.96849 29.3621 7.79961 29.3184C7.63073 29.2746 7.38562 29.2075 7.25412 29.1685C7.1226 29.1294 6.9313 29.0732 6.82818 29.0436C6.72506 29.0124 6.50387 28.9436 6.33499 28.889C6.16611 28.8344 5.81639 28.7157 5.55785 28.6267C5.2993 28.5377 4.99591 28.4269 4.88531 28.3816C4.77472 28.3363 4.48479 28.2114 4.24268 28.1037C4.00057 27.996 3.68373 27.8522 3.54026 27.7852C3.39679 27.7165 3.18457 27.6118 3.06949 27.551C2.95441 27.49 2.78255 27.3948 2.68839 27.3402C2.59424 27.284 2.40593 27.1668 2.26992 27.081C2.13393 26.9935 1.95907 26.878 1.88135 26.8217C1.80364 26.7655 1.63178 26.636 1.50026 26.5329C1.31941 26.3924 1.19388 26.2753 0.98465 26.0567C0.832209 25.8975 0.651375 25.6929 0.582627 25.6023C0.512385 25.5117 0.42122 25.3822 0.377879 25.3135C0.334539 25.2447 0.265792 25.1183 0.225439 25.0325C0.183593 24.9465 0.126802 24.8029 0.0969118 24.7123C0.0685161 24.6219 0.0341425 24.4891 0.0191973 24.4157C-0.000231273 24.308 -0.00322029 24.2221 0.00275774 23.9474C0.00873578 23.6538 0.0147138 23.5944 0.0460985 23.4712C0.0670216 23.3931 0.0969118 23.2916 0.113351 23.2447C0.131285 23.1979 0.171637 23.0995 0.203021 23.0262C0.235901 22.9527 0.297176 22.8341 0.340516 22.7606C0.385352 22.6873 0.472034 22.5577 0.534803 22.4735C0.597572 22.3875 0.766452 22.1908 0.909925 22.0378C1.0534 21.8832 1.22228 21.713 1.28355 21.66C1.34483 21.6069 1.47634 21.5007 1.57498 21.4226C1.67361 21.3461 1.81859 21.2384 1.8963 21.1822C1.97401 21.126 2.16531 20.9994 2.32223 20.9011C2.47766 20.8012 2.71977 20.656 2.86025 20.5779C2.99925 20.4998 3.27872 20.3562 3.48048 20.261C3.68224 20.1658 4.01103 20.0143 4.21279 19.9237C4.41455 19.8331 4.71345 19.7051 4.87785 19.638C5.04224 19.5708 5.41587 19.435 5.7073 19.3366C5.99872 19.2367 6.32453 19.129 6.43213 19.0946C6.53824 19.0603 6.73403 18.9994 6.86554 18.9603C6.99705 18.9228 7.21227 18.8588 7.34379 18.8214C7.4753 18.7823 7.81455 18.6903 8.09851 18.6168C8.38247 18.5435 8.75909 18.4513 8.93543 18.4124C9.11178 18.3733 9.46897 18.2952 9.72752 18.239C9.98607 18.1843 10.3059 18.1188 10.4374 18.0938C10.5689 18.0673 10.8245 18.022 11.0053 17.9908C11.1862 17.9595 11.4447 17.9142 11.5807 17.8877C11.7167 17.8627 11.9184 17.8268 12.0291 17.8096C12.1397 17.7924 12.4624 17.7441 12.7465 17.7019C13.0304 17.6597 13.4339 17.6035 13.6431 17.5786C13.8524 17.552 14.102 17.5192 14.1961 17.5067C14.2903 17.4942 14.4652 17.4723 14.5847 17.4598C14.7042 17.4473 14.9089 17.424 15.0405 17.4084C15.2034 17.3896 15.2931 17.3724 15.3199 17.3537C15.3439 17.3396 15.3858 17.2804 15.4157 17.221C15.4455 17.1632 15.5666 16.9228 15.6846 16.687C15.8041 16.4512 15.9521 16.1514 16.015 16.0234C16.0763 15.8939 16.133 15.7815 16.1389 15.7737C16.1449 15.7658 16.2137 15.6315 16.2914 15.4769C16.3691 15.3224 16.4932 15.0757 16.5649 14.9304C16.6366 14.7852 16.7143 14.6292 16.7367 14.5869C16.7592 14.5432 16.8339 14.3965 16.9011 14.2591C16.9684 14.1217 17.0715 13.914 17.1299 13.7986C17.1866 13.683 17.2494 13.5596 17.2673 13.5253C17.2853 13.4909 17.4152 13.238 17.5557 12.9632C17.6947 12.6884 17.8562 12.373 17.9129 12.2606C17.9713 12.1481 18.0833 11.9249 18.1641 11.7609C18.2447 11.597 18.3553 11.3737 18.4106 11.2613C18.4659 11.1489 18.6543 10.7663 18.8291 10.4104C19.0039 10.0544 19.2102 9.63281 19.2894 9.47355C19.3671 9.31429 19.4598 9.12848 19.4941 9.0598C19.5285 8.99109 19.6227 8.80529 19.7033 8.64604C19.7841 8.48677 19.8768 8.30098 19.9126 8.23228C19.947 8.16357 20.068 7.91843 20.1816 7.6858C20.2952 7.45316 20.4163 7.20802 20.4506 7.13932C20.485 7.07063 20.606 6.82861 20.7197 6.60065C20.8317 6.3727 20.9752 6.08541 21.0364 5.9605C21.0993 5.83559 21.1546 5.7263 21.1605 5.71849C21.1665 5.71068 21.2338 5.57641 21.31 5.42183C21.3861 5.26726 21.5012 5.0393 21.564 4.91439C21.6268 4.78948 21.8092 4.42101 21.9675 4.09468C22.1259 3.76836 22.3412 3.33586 22.4428 3.13445C22.5459 2.93303 22.7104 2.60982 22.8075 2.41622C22.9046 2.22262 23.2035 1.60744 23.4695 1.05003C23.737 0.491069 23.9627 0.0257856 23.9716 0.014856C23.9807 0.00392656 23.9955 -0.00231886 24.0061 0.000803842ZM23.8581 11.113C23.8193 11.1942 23.7281 11.3768 23.6563 11.5189C23.5846 11.661 23.4367 11.9592 23.3276 12.1825C23.2185 12.4058 23.1243 12.5947 23.1183 12.604C23.1123 12.6118 23.0481 12.7383 22.9764 12.8851C22.9046 13.0303 22.8239 13.1927 22.797 13.2443C22.7701 13.2958 22.5997 13.6439 22.4159 14.0171C22.2335 14.3902 22.0646 14.7307 22.0423 14.7744C22.0199 14.8165 21.9496 14.957 21.8854 15.0866C21.8211 15.2147 21.7105 15.4364 21.6388 15.5784C21.5671 15.7205 21.4086 16.0391 21.2876 16.2889C21.165 16.5372 21.0469 16.7807 21.023 16.8275C20.9886 16.8978 20.9842 16.9165 20.9991 16.9337C21.0156 16.9494 21.0977 16.9509 21.437 16.9369C21.6671 16.9274 22.0274 16.9134 22.2366 16.9056C22.4457 16.8978 23.2393 16.89 24.0001 16.89C24.7608 16.89 25.5544 16.8978 25.7636 16.9056C25.9729 16.9134 26.3256 16.9274 26.5482 16.9369C26.7694 16.9446 26.9637 16.9494 26.9771 16.9446C26.992 16.9399 27.0041 16.9258 27.0041 16.9134C27.0041 16.9009 26.8605 16.5964 26.6842 16.2374C26.5093 15.8798 26.348 15.555 26.3285 15.516C26.3077 15.4769 26.2418 15.3474 26.182 15.2272C26.1223 15.107 26.049 14.9586 26.0176 14.8992C25.9863 14.8384 25.7815 14.4246 25.5619 13.978C25.3421 13.5316 25.0881 13.0178 24.9969 12.8383C24.9073 12.6571 24.7668 12.3808 24.6875 12.2215C24.6068 12.0623 24.5231 11.8937 24.5037 11.8468C24.4828 11.8 24.4215 11.6766 24.3693 11.5736C24.3169 11.4705 24.2212 11.28 24.157 11.152C24.0927 11.0224 24.0329 10.9084 24.024 10.8975C24.015 10.8866 24.003 10.8772 23.9971 10.8788C23.9911 10.8788 23.9747 10.8975 23.9583 10.9209C23.9433 10.9459 23.8984 11.0318 23.8581 11.113ZM22.4085 17.9658C22.2186 17.9751 21.863 17.9938 21.6163 18.0063C21.3697 18.0188 21.0843 18.0329 20.9811 18.0376C20.878 18.0423 20.6927 18.0564 20.5702 18.0689C20.4462 18.0813 20.077 18.1126 19.7482 18.1391C19.4194 18.1641 18.9995 18.2 18.8141 18.2171C18.6288 18.2358 18.4031 18.2608 18.3135 18.2733C18.2223 18.2843 18.0519 18.3061 17.9324 18.3186C17.8129 18.3311 17.5812 18.3592 17.4168 18.3796C17.2523 18.4013 17.0341 18.4295 16.931 18.4436C16.8279 18.4561 16.5993 18.4889 16.4229 18.5153C16.2465 18.5403 16.0911 18.5653 16.0792 18.5684C16.0672 18.5731 15.9925 18.5856 15.9148 18.5981C15.8371 18.6106 15.6757 18.6387 15.5561 18.6606C15.4365 18.6824 15.2647 18.7136 15.175 18.7308C15.0838 18.7495 14.9164 18.7855 14.8014 18.8121C14.6863 18.8385 14.5279 18.8729 14.4502 18.8886C14.3725 18.9041 14.1304 18.9603 13.9121 19.0134C13.6939 19.0666 13.3308 19.1586 13.1051 19.218C12.8795 19.2788 12.5566 19.3694 12.3878 19.421C12.2189 19.4725 11.9573 19.5537 11.8049 19.6006C11.6525 19.6489 11.4073 19.727 11.2594 19.7738C11.1114 19.8207 10.8693 19.9034 10.7214 19.958C10.5734 20.0127 10.3448 20.1017 10.2132 20.1579C10.0817 20.2141 9.86652 20.3047 9.735 20.3609C9.60348 20.4155 9.38827 20.5139 9.25676 20.5763C9.12524 20.6388 8.8353 20.7856 8.61411 20.9027C8.39143 21.0197 8.11943 21.1744 8.00884 21.2462C7.89825 21.3165 7.72638 21.4319 7.62923 21.5022C7.5306 21.571 7.33332 21.7287 7.18835 21.8489C7.01648 21.9925 6.83864 22.1612 6.67873 22.3329C6.50387 22.5186 6.40225 22.6436 6.332 22.7529C6.2767 22.8387 6.20497 22.9652 6.17209 23.0339C6.13921 23.1027 6.09437 23.2088 6.07345 23.2682C6.05104 23.3274 6.01666 23.4398 5.99573 23.5179C5.96435 23.6367 5.95687 23.7022 5.9509 23.9395C5.94492 24.1612 5.94791 24.2502 5.96734 24.3611C5.98228 24.4375 6.01666 24.575 6.04655 24.6656C6.07494 24.7561 6.12575 24.8857 6.15864 24.9544C6.19152 25.023 6.25579 25.1386 6.30211 25.2121C6.34695 25.2854 6.42615 25.3978 6.47696 25.4618C6.52928 25.5258 6.6608 25.671 6.76989 25.7819C6.88049 25.8943 7.07179 26.0692 7.19433 26.1723C7.31838 26.2753 7.48127 26.4049 7.556 26.4611C7.63222 26.5173 7.81007 26.6391 7.95205 26.7313C8.09402 26.8233 8.38845 26.9935 8.60665 27.1075C8.82484 27.223 9.11627 27.3714 9.25676 27.437C9.39574 27.5041 9.61543 27.6025 9.74247 27.6571C9.86951 27.7102 10.0578 27.7914 10.1609 27.8351C10.2641 27.8788 10.4658 27.96 10.6093 28.0147C10.7528 28.0677 10.9545 28.1411 11.0576 28.1754C11.1608 28.2098 11.3012 28.2567 11.3715 28.2785C11.4417 28.2988 11.6121 28.3534 11.7526 28.3971C11.8916 28.4409 12.0634 28.4955 12.1337 28.5159C12.2039 28.5377 12.3608 28.5861 12.4849 28.6236C12.6075 28.6611 12.9108 28.7438 13.1575 28.8094C13.404 28.8735 13.6625 28.9405 13.7329 28.9577C13.803 28.9749 13.9376 29.0076 14.0317 29.0295C14.1259 29.0529 14.3142 29.0966 14.4502 29.1264C14.5862 29.156 14.7745 29.1981 14.8686 29.2184C14.9627 29.2403 15.1271 29.2746 15.2348 29.2949C15.3409 29.3153 15.5098 29.3465 15.6084 29.3636C15.7071 29.3809 15.8879 29.4121 16.0119 29.4339C16.1345 29.4558 16.3064 29.4838 16.393 29.4964C16.4797 29.5104 16.6815 29.5385 16.8414 29.5603C17.0013 29.5822 17.2434 29.6135 17.3794 29.6306C17.5154 29.6463 17.7202 29.6712 17.8352 29.6837C17.9503 29.6978 18.155 29.7228 18.2911 29.7399C18.427 29.7571 18.6826 29.7836 18.859 29.8009C19.0354 29.818 19.2445 29.8368 19.3222 29.8414C19.4 29.8461 19.669 29.868 19.9201 29.8899C20.1711 29.9101 20.4895 29.9382 20.6299 29.9507C20.7689 29.9632 20.9678 29.9773 21.0709 29.9819C21.174 29.9866 21.4729 30.0007 21.7359 30.0132C21.9989 30.0256 22.3382 30.0444 22.4906 30.0522C22.6431 30.06 23.0421 30.0756 23.3798 30.0866C23.8566 30.1006 24.1316 30.1006 24.6203 30.085C24.9655 30.0756 25.3661 30.06 25.5095 30.0522C25.653 30.0429 25.9893 30.0256 26.2568 30.0132C26.5243 30.0007 26.8291 29.9866 26.9368 29.9819C27.0429 29.9773 27.2387 29.9632 27.3702 29.9507C27.5017 29.9382 27.7378 29.9163 27.8933 29.9038C28.0487 29.8914 28.3581 29.8664 28.5807 29.8492C28.802 29.8321 29.1457 29.8009 29.3429 29.779C29.5403 29.7571 29.7928 29.729 29.9034 29.7165C30.0139 29.7041 30.1888 29.6821 30.2919 29.6697C30.395 29.6572 30.6462 29.6244 30.8524 29.5994C31.0571 29.5728 31.3471 29.5339 31.4951 29.512C31.643 29.4901 31.9793 29.4339 32.2423 29.3886C32.5054 29.3418 32.7743 29.2933 32.8402 29.2809C32.9059 29.2684 33.0403 29.2387 33.139 29.2168C33.2377 29.1934 33.3826 29.1622 33.4603 29.1451C33.538 29.1278 33.68 29.0966 33.7741 29.0748C33.8684 29.0529 34.1419 28.9858 34.3794 28.9265C34.6171 28.8672 34.9413 28.7845 35.0968 28.7422C35.2522 28.7001 35.4421 28.647 35.5153 28.6236C35.5886 28.6017 35.865 28.5159 36.128 28.4347C36.3911 28.352 36.7438 28.2394 36.9127 28.1833C37.0815 28.1271 37.3236 28.0397 37.4507 27.9912C37.5777 27.9412 37.76 27.8679 37.8541 27.8273C37.9484 27.7867 38.1307 27.7102 38.2577 27.6555C38.3848 27.6009 38.6179 27.4963 38.7732 27.4213C38.9287 27.348 39.2246 27.1964 39.4309 27.0873C39.6356 26.9763 39.8688 26.8467 39.9465 26.7968C40.0242 26.7484 40.1721 26.65 40.2752 26.5782C40.3784 26.508 40.5233 26.4017 40.5966 26.3425C40.6698 26.2847 40.8088 26.1707 40.903 26.0895C40.9971 26.0083 41.1795 25.8319 41.3065 25.6976C41.4395 25.557 41.5815 25.3901 41.6382 25.3057C41.6936 25.2245 41.7788 25.0731 41.8281 24.97C41.8759 24.867 41.9297 24.7405 41.9461 24.689C41.9626 24.6374 41.9925 24.5359 42.0104 24.4626C42.0418 24.3439 42.0448 24.2939 42.0448 24.0098C42.0463 23.7116 42.0432 23.6788 42.006 23.5336C41.9835 23.4477 41.9476 23.3306 41.9268 23.2712C41.9058 23.2135 41.8609 23.1089 41.8281 23.0371C41.7938 22.9668 41.719 22.8357 41.6607 22.7451C41.58 22.6217 41.4873 22.5109 41.2841 22.2985C41.1301 22.1362 40.9223 21.9409 40.7984 21.838C40.6788 21.738 40.5204 21.6131 40.4471 21.5569C40.3739 21.5022 40.211 21.3898 40.0884 21.3102C39.9645 21.229 39.7297 21.0884 39.5654 20.9994C39.401 20.9104 39.1753 20.7902 39.0647 20.7356C38.9542 20.6794 38.7659 20.5888 38.6462 20.5326C38.5267 20.4764 38.3489 20.3968 38.2502 20.3562C38.1516 20.314 37.9871 20.2437 37.884 20.2C37.7809 20.1547 37.6539 20.1017 37.6001 20.0814C37.5463 20.0595 37.358 19.9892 37.1816 19.9253C37.0054 19.8613 36.6914 19.7566 36.4867 19.6926C36.2804 19.6302 36.0832 19.5677 36.0458 19.5553C36.0084 19.5428 35.8276 19.485 35.6423 19.4288C35.457 19.3725 35.2119 19.3023 35.0968 19.2726C34.9818 19.243 34.8069 19.1977 34.7082 19.1711C34.6096 19.1445 34.3137 19.0696 34.0507 19.0072C33.7876 18.9432 33.5425 18.887 33.5052 18.8807C33.4678 18.8745 33.4035 18.8604 33.3632 18.8495C33.3213 18.837 33.2213 18.8135 33.139 18.7964C33.0568 18.7793 32.8581 18.7402 32.6981 18.709C32.5382 18.6794 32.3498 18.6434 32.2796 18.6309C32.2095 18.6184 32.048 18.5904 31.9209 18.5684C31.7939 18.5481 31.5922 18.5153 31.4726 18.4982C31.353 18.481 31.1753 18.4575 31.0766 18.4436C30.9779 18.4311 30.7283 18.3999 30.5236 18.3733C30.3173 18.3483 30.0588 18.3171 29.9482 18.303C29.8376 18.2906 29.5881 18.2624 29.3953 18.2406C29.2024 18.2187 28.8662 18.1875 28.648 18.1703C28.4298 18.1531 28.0801 18.1251 27.8708 18.1078C27.6616 18.0907 27.4225 18.0703 27.3403 18.061C27.2582 18.0532 27.0354 18.0391 26.8471 18.0298C26.6573 18.022 26.4421 18.0111 26.3688 18.0063C26.2957 18.0017 26.0895 17.9908 25.9131 17.9813C25.7367 17.9736 25.3526 17.9564 25.0611 17.9439C24.7698 17.9314 24.2586 17.9221 23.9254 17.9235C23.5921 17.9235 23.1915 17.9298 23.0361 17.9376C22.8792 17.9439 22.5967 17.9564 22.4085 17.9658ZM21.2128 31.5746C21.3354 31.8227 21.573 32.3053 21.7433 32.644C21.9137 32.9829 22.1857 33.531 22.3486 33.862C22.5101 34.193 22.6909 34.5583 22.7477 34.6738C22.806 34.7894 22.8777 34.933 22.9091 34.9939C22.9405 35.0532 23.0481 35.2687 23.1482 35.4702C23.2499 35.6716 23.4022 35.9807 23.4889 36.1571C23.5741 36.3336 23.6743 36.5334 23.7087 36.6021C23.743 36.6708 23.8162 36.816 23.8716 36.9254C23.9254 37.0361 23.9791 37.1298 23.9882 37.136C24.0001 37.1423 24.0165 37.1314 24.03 37.1096C24.042 37.0893 24.1032 36.9705 24.1659 36.8457C24.2287 36.7208 24.3797 36.4132 24.5037 36.1649C24.6262 35.9166 24.8071 35.5544 24.9028 35.3609C25 35.1672 25.112 34.9455 25.1509 34.869C25.1897 34.7925 25.4019 34.3632 25.6216 33.9166C25.8414 33.47 26.1612 32.8267 26.3316 32.488C26.5004 32.1491 26.7231 31.7025 26.8247 31.4965C26.9577 31.2233 27.0055 31.1139 26.998 31.0906C26.9876 31.0593 26.9787 31.0593 26.6483 31.0718C26.4615 31.0781 26.1776 31.092 26.0176 31.1015C25.8279 31.1139 25.1359 31.1202 24.0225 31.1202C22.8896 31.1202 22.2007 31.1155 21.9675 31.103C21.7747 31.092 21.4804 31.0781 21.3159 31.0733C21.0289 31.0624 21.0141 31.064 21.0021 31.092C20.9931 31.1139 21.0455 31.2342 21.2128 31.5746ZM24.1719 18.6013C24.7264 18.6059 25.3346 18.6184 25.5619 18.6309C25.783 18.6418 26.2075 18.6605 26.5034 18.6699C26.7993 18.6794 27.1356 18.6949 27.2507 18.7027C27.3657 18.712 27.5406 18.7231 27.6393 18.7261C27.7378 18.7308 27.8334 18.737 27.8515 18.7402C27.8739 18.7449 27.9097 18.7871 27.9516 18.8526C27.9874 18.912 28.0801 19.0915 28.1578 19.2555C28.2355 19.4178 28.4044 19.7629 28.5345 20.0206C28.6644 20.2781 28.8109 20.5623 28.8572 20.6529C28.9051 20.7434 28.9917 20.9152 29.0515 21.0354C29.1112 21.1556 29.2757 21.4788 29.4177 21.7536C29.5596 22.0285 29.7151 22.3344 29.7645 22.4328C29.8137 22.5311 29.9273 22.7592 30.0155 22.9402C30.1037 23.1198 30.2487 23.4055 30.3368 23.5726C30.4249 23.7396 30.5116 23.9067 30.561 24.0098L30.4355 24.247C30.3667 24.3783 30.2367 24.6328 30.147 24.8138C30.0558 24.995 29.8929 25.3213 29.7838 25.5399C29.6747 25.7585 29.4998 26.1035 29.3953 26.305C29.2907 26.5064 29.1831 26.7172 29.1561 26.7734C29.1278 26.8296 28.9798 27.1199 28.8273 27.4213C28.6734 27.7211 28.509 28.0443 28.4612 28.1396C28.4134 28.2348 28.2773 28.508 28.1593 28.7485C28.0412 28.9889 27.9246 29.2059 27.9007 29.2325C27.8559 29.2794 27.8544 29.2794 27.6347 29.2887C27.5136 29.2949 27.291 29.3074 27.1385 29.3168C26.9861 29.3247 26.6364 29.3402 26.3614 29.3497C26.0864 29.359 25.677 29.3777 25.4528 29.3902C25.1762 29.4043 24.7114 29.4121 24.0001 29.4121C23.2871 29.4121 22.8239 29.4043 22.5459 29.3902C22.3233 29.3777 21.9077 29.359 21.6238 29.3497C21.3398 29.3402 20.9902 29.3247 20.8467 29.3153C20.7032 29.3058 20.485 29.2949 20.1413 29.2794L20.0859 29.2154C20.0561 29.181 19.9545 28.9921 19.8543 28.7859C19.7572 28.5845 19.5554 28.1817 19.4074 27.8897C19.2609 27.5977 19.098 27.2777 19.0473 27.1793C18.9964 27.081 18.9278 26.9467 18.8964 26.8827C18.865 26.8187 18.7245 26.5438 18.5855 26.2738C18.4465 26.0036 18.2208 25.557 18.0848 25.2823C17.9503 25.0075 17.7591 24.6312 17.6619 24.4469C17.5662 24.2627 17.475 24.0863 17.4362 24.002L17.5542 23.7756C17.6201 23.6506 17.6932 23.5133 17.7157 23.4712C17.7381 23.4273 17.8576 23.1885 17.9802 22.9402C18.1043 22.6904 18.2373 22.4234 18.2761 22.3469C18.315 22.2689 18.3942 22.1143 18.4509 22.0035C18.5093 21.891 18.6333 21.649 18.7275 21.4647C18.8216 21.2805 18.9367 21.0557 18.9816 20.9651C19.0263 20.8746 19.2117 20.5093 19.3925 20.1533C19.5734 19.7973 19.7931 19.3569 19.8797 19.1774C19.9679 18.9963 20.0576 18.8245 20.1264 18.7402L20.3176 18.7308C20.4237 18.7261 20.615 18.7136 20.7421 18.7043C20.8691 18.6949 21.2053 18.6794 21.4893 18.6699C21.7733 18.6605 22.2261 18.6434 22.4981 18.6293C22.7686 18.6168 23.0346 18.6043 23.0884 18.6013C23.1422 18.5981 23.6295 18.5981 24.1719 18.6013ZM28.7436 18.8636C28.7691 18.8682 28.8512 18.8761 28.9245 18.8807C28.9977 18.8854 29.1532 18.8995 29.2683 18.912C29.3834 18.926 29.585 18.9464 29.7165 18.9588C29.8481 18.9713 30.0872 18.9963 30.2472 19.0134C30.407 19.0306 30.6357 19.0587 30.7553 19.0775C30.8748 19.0946 31.0826 19.1258 31.2185 19.1477C31.3546 19.1695 31.6131 19.2118 31.7939 19.2414C31.9747 19.271 32.2409 19.3179 32.3843 19.3429C32.5277 19.3694 32.6937 19.3991 32.7504 19.4115C32.8072 19.424 32.9522 19.4522 33.0717 19.4756C33.2705 19.5146 33.2914 19.5224 33.3333 19.5662C33.3587 19.5943 33.4842 19.8331 33.6157 20.0985C33.7458 20.3655 33.9027 20.6841 33.9655 20.8089C34.0268 20.9339 34.1448 21.1649 34.227 21.3242C34.3092 21.4835 34.4378 21.7317 34.5139 21.8785C34.5901 22.0237 34.6903 22.2204 34.7381 22.3157C34.7859 22.4094 34.928 22.6841 35.052 22.9247C35.1775 23.1651 35.3479 23.5008 35.4315 23.6693C35.5138 23.8396 35.5826 23.9895 35.5826 24.002C35.5826 24.0144 35.5153 24.1644 35.4346 24.333C35.3524 24.5031 35.2388 24.7296 35.182 24.8373C35.1252 24.9451 34.9937 25.201 34.8875 25.4072C34.783 25.6133 34.5648 26.038 34.4019 26.3518C34.2404 26.6656 34.0656 27.006 34.0133 27.109C33.9625 27.2121 33.8115 27.5182 33.68 27.7882C33.5486 28.0584 33.4185 28.3191 33.393 28.3659C33.3662 28.4128 33.3348 28.4597 33.3244 28.4706C33.3123 28.4799 33.2392 28.5034 33.1614 28.5205C33.0837 28.5377 32.8909 28.5767 32.7355 28.6065C32.58 28.6361 32.3066 28.686 32.1302 28.7157C31.9539 28.7454 31.7252 28.7845 31.6221 28.8016C31.519 28.8187 31.3247 28.8499 31.1886 28.8719C31.0527 28.8937 30.8135 28.9296 30.6581 28.95C30.5027 28.9718 30.2695 28.9999 30.1425 29.0139C30.0155 29.0279 29.8003 29.0483 29.6643 29.0607C29.5283 29.0732 29.334 29.0951 29.2309 29.1076C29.1278 29.1201 28.9589 29.1357 28.8543 29.1435C28.6734 29.1544 28.6644 29.1529 28.654 29.1232C28.6465 29.0998 28.7062 28.9639 28.8722 28.6236C28.9977 28.3659 29.1711 28.0115 29.2577 27.8351C29.3445 27.6587 29.4684 27.4135 29.5343 27.2886C29.6 27.1638 29.6882 26.992 29.7315 26.9061C29.7749 26.8203 29.9048 26.5595 30.0199 26.3284C30.135 26.0958 30.3817 25.5945 30.5685 25.2121C30.7553 24.8295 30.9645 24.4063 31.0332 24.2705C31.102 24.1363 31.1587 24.016 31.1587 24.0051C31.1587 23.9957 31.0855 23.8427 30.9959 23.6663C30.9077 23.4899 30.7389 23.1494 30.6207 22.909C30.5041 22.6686 30.3592 22.3734 30.2994 22.2532C30.2396 22.133 30.0857 21.8207 29.9557 21.5585C29.8271 21.2962 29.6852 21.0151 29.6419 20.9339C29.5985 20.8528 29.5283 20.7185 29.4864 20.6372C29.4445 20.556 29.2862 20.236 29.1352 19.9268C28.9842 19.6177 28.8109 19.2601 28.7496 19.1336C28.6436 18.9104 28.642 18.9011 28.669 18.8791C28.6869 18.8667 28.7182 18.8604 28.7436 18.8636ZM19.1832 18.8761C19.2939 18.8729 19.3402 18.8791 19.3461 18.8916C19.3507 18.9025 19.1728 19.2835 18.9517 19.7395C18.7304 20.1938 18.4748 20.7075 18.3852 20.8792C18.2955 21.051 18.1506 21.3352 18.0639 21.5116C17.9773 21.688 17.7157 22.222 17.4811 22.6982C17.2464 23.1744 17.0073 23.66 16.9489 23.7756C16.8892 23.891 16.8414 23.9973 16.8414 24.0098C16.8414 24.0223 16.925 24.1987 17.0268 24.4001C17.1299 24.6016 17.3495 25.048 17.5184 25.3915C17.6858 25.735 17.9264 26.2237 18.0519 26.4768C18.1774 26.7297 18.3584 27.0887 18.4555 27.273C18.5511 27.4572 18.7932 27.9444 18.992 28.3534C19.2177 28.8219 19.3492 29.1107 19.3432 29.1264C19.3357 29.1513 19.3193 29.1529 19.1459 29.1435C19.0413 29.1357 18.8725 29.1201 18.7693 29.1076C18.6662 29.0951 18.4719 29.0732 18.3359 29.0607C18.1999 29.0483 17.9846 29.0279 17.8576 29.0139C17.7306 28.9999 17.499 28.9718 17.342 28.9514C17.1851 28.9296 16.9938 28.9015 16.9161 28.889C16.8384 28.8765 16.6665 28.8499 16.535 28.8282C16.4034 28.8062 16.1688 28.7672 16.0119 28.7406C15.855 28.7142 15.6742 28.683 15.6084 28.6704C15.5427 28.6579 15.3738 28.6252 15.2348 28.6002C15.0957 28.5737 14.9164 28.5377 14.8387 28.5205C14.7146 28.494 14.6907 28.4831 14.6549 28.4394C14.6325 28.4128 14.5652 28.291 14.507 28.1708C14.4486 28.0506 14.2678 27.6851 14.1064 27.3589C13.9451 27.0325 13.7747 26.6953 13.7298 26.6095C13.685 26.5235 13.5534 26.2706 13.4384 26.0473C13.3219 25.824 13.129 25.4478 13.0065 25.2121C12.8855 24.9763 12.739 24.6906 12.6821 24.5796C12.6239 24.4673 12.5416 24.3002 12.4984 24.2049C12.4535 24.1097 12.4177 24.0207 12.4177 24.0051C12.4177 23.9911 12.4714 23.8677 12.5357 23.7319C12.6015 23.5976 12.7584 23.2869 12.8855 23.0417C13.0125 22.7966 13.1739 22.4843 13.2427 22.3469C13.3129 22.2095 13.5027 21.841 13.6656 21.5272C13.8285 21.2134 14.0989 20.6732 14.2678 20.325C14.4367 19.9767 14.5936 19.663 14.6175 19.6255C14.64 19.5895 14.6743 19.5505 14.6923 19.538C14.7117 19.5255 14.7775 19.5053 14.8387 19.4912C14.9 19.4787 15.0659 19.4459 15.2048 19.4194C15.3439 19.3928 15.5128 19.3616 15.5786 19.3491C15.6443 19.3366 15.8461 19.3023 16.0269 19.271C16.2077 19.2414 16.4423 19.2023 16.5499 19.1836C16.6576 19.1665 16.8086 19.1431 16.8862 19.1306C16.9639 19.1181 17.1253 19.093 17.245 19.0759C17.3645 19.0587 17.5931 19.0306 17.7531 19.0134C17.9129 18.9963 18.1491 18.9713 18.2761 18.9588C18.4031 18.9464 18.5825 18.9275 18.6722 18.9166C18.7618 18.9073 18.8798 18.8948 18.9338 18.8886C18.9875 18.8823 19.0996 18.8761 19.1832 18.8761Z" fill="#58E8BB"/>
</g>
<defs>
<clipPath id="clip0_1_355">
<rect width="48" height="48" fill="white"/>
</clipPath>
</defs>
</svg>
