<svg width="1003" height="535" viewBox="0 0 1003 535" fill="none" xmlns="http://www.w3.org/2000/svg">
<g clip-path="url(#clip0_1_1183)">
<g clip-path="url(#clip1_1_1183)" filter="url(#filter0_dddddd_1_1183)">
<path d="M0 361.687L2.73901 373.076L5.47802 367.417L8.21703 360.908L10.956 367.694L13.6951 360.025L16.4341 369.411L19.1731 376.017L21.9121 368.912L24.6511 376.931L27.3901 374.882L30.1291 374.563L32.8681 365.019L35.6071 349.012L38.3462 343.789L41.0852 347.586L43.8242 360.399L46.5632 360.491L49.3022 357.462L52.0412 358.9L54.7802 378.233L57.5192 370.234L60.2582 383.851L62.9973 390.009L65.7363 388.406L68.4753 384.609L71.2143 385.995L73.9533 398.065L76.6923 399.872L79.4313 400.43L82.1703 407.336L84.9093 405.833L87.6484 414.932L90.3874 440.467L93.1264 427.895L95.8654 437.012L98.6044 429.751L101.343 440.879L104.082 435.989L106.821 419.283L109.56 418.52L112.299 425.464L115.038 441.526L117.777 468.823L120.516 472.837L123.255 459.52L125.995 480.516L128.734 473.505L131.473 461.684L134.212 464.222L136.951 467.045L139.69 462.479L142.429 451.281L145.168 435.293L147.907 400.512L150.646 397.593L153.385 406.758L156.124 408.337L158.863 383.948L161.602 379.333L164.341 371.453L167.08 375.745L169.819 390.622L172.558 395.437L175.297 392.342L178.036 372.952L180.775 371.745L183.514 370.076L186.253 383.226L188.992 388.151L191.731 401.903L194.47 395.848L197.209 431.139L199.948 437.112L202.687 461.524L205.426 497.706L208.165 479.806L210.904 487.488L213.643 427.103L216.382 435.559L219.121 435.781L221.86 454.395L224.599 449.518L227.338 438.34L230.077 454.976L232.816 464.938L235.555 453.7L238.294 448.797L241.033 457.664L243.772 447.509L246.511 452.108L249.25 433.485L251.989 440.249L254.728 407.532L257.467 406.572L260.206 405.601L262.945 417.601L265.684 447.941L268.423 452.509L271.162 449.505L273.901 451.25L276.64 453.001L279.379 467.318L282.118 451.674L284.857 466.006L287.596 461.688L290.335 478.265L293.074 498L295.813 495.967L298.552 490.236L301.291 470.075L304.03 464.937L306.769 467.103L309.508 460.624L312.247 438.167L314.986 443.682L317.725 450.727L320.464 459.693L323.203 440.879L325.942 430.843L328.681 417.209L331.42 415.764L334.159 413.306L336.898 411.705L339.637 413.988L342.376 404.991L345.115 415.553L347.854 397.874L350.593 391.975L353.332 390.697L356.071 393.113L358.81 414.736L361.549 435.915L364.288 437.855L367.027 437.209L369.767 424.924L372.505 425.022L375.245 418.591L377.984 423.276L380.723 424.189L383.462 438.377L386.201 441.968L388.94 422.339L391.679 415.054L394.418 418.433L397.157 389.661L399.896 381.512L402.635 375.389L405.374 378.243L408.113 368.08L410.852 368.766L413.591 363.638L416.33 377.646L419.069 378.038L421.808 383.998L424.547 370.328L427.286 384.876L430.025 381.012L432.764 372.789L435.503 355.754L438.242 329.526L440.981 333.443L443.72 352.005L446.459 358.768L449.198 360.634L451.937 365.062L454.676 374.087L457.415 360.31L460.154 304.156L462.893 300.883L465.632 295.855L468.371 295.138L471.11 260.863L473.849 187.867L476.588 191.198L479.327 171.333L482.066 198.855L484.805 167.224L487.544 170.276L490.283 177.11L493.022 170.917L495.761 155.577L498.5 138.019L501.239 99.6737L503.978 95.9359L506.717 107.086L509.456 104.08L512.195 148.85L514.934 158.435L517.673 122.258L520.412 125.113L523.151 109.107L525.89 117.506L528.629 110.371L531.368 123.581L534.107 121.807L536.846 96.3471L539.585 111.356L542.324 86.5878L545.063 88.3033L547.802 75.3175L550.541 109.994L553.28 116.285L556.019 76.3159L558.758 86.347L561.497 74.2735L564.236 74.1414L566.975 44.1726L569.714 32.0885L572.453 32.4387L575.192 83.1775L577.931 105.55L580.67 106.979L583.409 111.344L586.148 130.182L588.887 134.196L591.626 98.0066L594.365 92.2064L597.104 124.964L599.843 136.992L602.582 129.375L605.321 142.965L608.06 152.222L610.799 144.355L613.538 136.526L616.277 114.477L619.017 103.469L621.756 101.928L624.495 100.965L627.234 66.4369L629.973 113.584L632.712 130.875L635.451 154.464L638.19 133.377L640.929 134.959L643.668 135.895L646.407 135.881L649.146 116.961L651.885 83.5565L654.624 85.9559L657.363 49.1828L660.102 47.629L662.841 74.9604L665.58 70.5866L668.319 31.1225L671.058 53.5351L673.797 50.0144L676.536 43.1569L679.275 43.5067L682.014 63.5526L684.753 68.8574L687.492 74.6229L690.231 53.1291L692.97 43.6365L695.709 65.0701L698.448 80.3257L701.187 108.079L703.926 73.2494L706.665 103.164L709.404 116.882L712.143 116.413L714.882 117.101L717.621 117.103L720.36 117.189L723.099 109.583L725.838 124.413L728.577 105.686L731.316 117.072L734.055 108.792L736.794 108.064L739.533 120.756L742.272 124.09L745.011 126.594L747.75 117.133L750.489 100.789L753.228 120.882L755.967 117.05L758.706 119.164L761.445 163.215L764.184 186.809L766.923 230.19L769.662 222.962L772.401 225.349L775.14 211.382L777.879 137.621L780.618 210.315L783.357 199.719L786.096 170.297L788.835 175.681L791.574 204.52L794.313 210.152L797.052 258.322L799.791 275.897L802.53 240.026L805.269 230.331L808.008 255.215L810.747 229.55L813.486 225.798L816.225 241.71L818.964 228.624L821.703 240.196L824.442 204.144L827.181 226.877L829.92 229.212L832.659 231.144L835.398 213.326L838.137 199.567L840.876 197.845L843.615 202.845L846.354 200.465L849.093 226.086L851.832 241.097L854.571 243.981L857.31 242.572L860.049 218.241L862.788 242.462L865.527 236.766L868.267 230.619L871.006 232.908L873.744 281.011L876.484 272.365L879.223 297.829L881.962 241.607L884.701 268.639L887.44 234.307L890.179 217.638L892.918 232.863L895.657 224.621L898.396 232.366L901.135 228.352L903.874 220.981L906.613 225.422L909.352 219.232L912.091 219.71L914.83 198.457L917.569 143.744L920.308 143.483L923.047 141.094L925.786 133.051L928.525 134.204L931.264 141.661L934.003 130.75L936.742 137.668L939.481 137.852L942.22 118.276L944.959 114.446L947.698 122.779L950.437 137.04L953.176 133.179L955.915 114.456L958.654 112.919L961.393 58.871L964.132 59.8871L966.871 44.9822L969.61 50.6715L972.349 60.6528L975.088 48.9702L977.827 54.2418L980.566 53.2196L983.305 54.5848L986.044 57.6551L988.783 32.4769L991.522 36.0614L994.261 25.7221L997 0" stroke="#58E8BB" stroke-width="2"/>
</g>
<path d="M971.699 32.1193C971.114 32.1193 970.597 32.0156 970.148 31.8082C969.702 31.598 969.354 31.3097 969.104 30.9432C968.854 30.5739 968.73 30.1534 968.733 29.6818C968.73 29.3125 968.803 28.9716 968.95 28.6591C969.098 28.3437 969.3 28.081 969.555 27.8707C969.814 27.6577 970.102 27.5227 970.42 27.4659V27.4148C970.003 27.3068 969.67 27.0724 969.423 26.7116C969.176 26.348 969.054 25.9347 969.057 25.4716C969.054 25.0284 969.166 24.6321 969.393 24.2827C969.621 23.9332 969.933 23.6577 970.331 23.456C970.732 23.2543 971.188 23.1534 971.699 23.1534C972.205 23.1534 972.656 23.2543 973.054 23.456C973.452 23.6577 973.764 23.9332 973.991 24.2827C974.222 24.6321 974.338 25.0284 974.341 25.4716C974.338 25.9347 974.212 26.348 973.962 26.7116C973.714 27.0724 973.386 27.3068 972.977 27.4148V27.4659C973.293 27.5227 973.577 27.6577 973.83 27.8707C974.082 28.081 974.284 28.3437 974.435 28.6591C974.585 28.9716 974.662 29.3125 974.665 29.6818C974.662 30.1534 974.534 30.5739 974.281 30.9432C974.031 31.3097 973.683 31.598 973.237 31.8082C972.794 32.0156 972.281 32.1193 971.699 32.1193ZM971.699 31.1818C972.094 31.1818 972.435 31.1179 972.722 30.9901C973.009 30.8622 973.23 30.6818 973.386 30.4489C973.543 30.2159 973.622 29.9432 973.625 29.6307C973.622 29.3011 973.537 29.0099 973.369 28.7571C973.202 28.5043 972.973 28.3054 972.683 28.1605C972.396 28.0156 972.068 27.9432 971.699 27.9432C971.327 27.9432 970.994 28.0156 970.702 28.1605C970.412 28.3054 970.183 28.5043 970.016 28.7571C969.851 29.0099 969.77 29.3011 969.773 29.6307C969.77 29.9432 969.845 30.2159 969.999 30.4489C970.155 30.6818 970.378 30.8622 970.668 30.9901C970.957 31.1179 971.301 31.1818 971.699 31.1818ZM971.699 27.0398C972.011 27.0398 972.288 26.9773 972.53 26.8523C972.774 26.7273 972.966 26.5526 973.105 26.3281C973.244 26.1037 973.315 25.8409 973.318 25.5398C973.315 25.2443 973.246 24.9872 973.109 24.7685C972.973 24.5469 972.784 24.3764 972.543 24.2571C972.301 24.1349 972.02 24.0739 971.699 24.0739C971.372 24.0739 971.087 24.1349 970.842 24.2571C970.598 24.3764 970.409 24.5469 970.276 24.7685C970.142 24.9872 970.077 25.2443 970.08 25.5398C970.077 25.8409 970.143 26.1037 970.28 26.3281C970.419 26.5526 970.611 26.7273 970.855 26.8523C971.099 26.9773 971.381 27.0398 971.699 27.0398ZM976.778 32.0682C976.568 32.0682 976.388 31.9929 976.237 31.8423C976.087 31.6918 976.011 31.5114 976.011 31.3011C976.011 31.0909 976.087 30.9105 976.237 30.7599C976.388 30.6094 976.568 30.5341 976.778 30.5341C976.989 30.5341 977.169 30.6094 977.32 30.7599C977.47 30.9105 977.545 31.0909 977.545 31.3011C977.545 31.4403 977.51 31.5682 977.439 31.6847C977.371 31.8011 977.278 31.8949 977.162 31.9659C977.048 32.0341 976.92 32.0682 976.778 32.0682ZM981.875 32.1193C981.233 32.1193 980.686 31.9446 980.234 31.5952C979.783 31.2429 979.438 30.733 979.199 30.0653C978.96 29.3949 978.841 28.5852 978.841 27.6364C978.841 26.6932 978.96 25.8878 979.199 25.2202C979.44 24.5497 979.787 24.0384 980.239 23.6861C980.693 23.331 981.239 23.1534 981.875 23.1534C982.511 23.1534 983.055 23.331 983.507 23.6861C983.962 24.0384 984.308 24.5497 984.547 25.2202C984.788 25.8878 984.909 26.6932 984.909 27.6364C984.909 28.5852 984.79 29.3949 984.551 30.0653C984.312 30.733 983.967 31.2429 983.516 31.5952C983.064 31.9446 982.517 32.1193 981.875 32.1193ZM981.875 31.1818C982.511 31.1818 983.006 30.875 983.358 30.2614C983.71 29.6477 983.886 28.7727 983.886 27.6364C983.886 26.8807 983.805 26.2372 983.643 25.706C983.484 25.1747 983.254 24.7699 982.953 24.4915C982.655 24.2131 982.295 24.0739 981.875 24.0739C981.244 24.0739 980.751 24.3849 980.396 25.0071C980.041 25.6264 979.864 26.5028 979.864 27.6364C979.864 28.392 979.943 29.0341 980.102 29.5625C980.261 30.0909 980.49 30.4929 980.788 30.7685C981.089 31.044 981.452 31.1818 981.875 31.1818ZM989.375 32.1193C988.733 32.1193 988.186 31.9446 987.734 31.5952C987.283 31.2429 986.938 30.733 986.699 30.0653C986.46 29.3949 986.341 28.5852 986.341 27.6364C986.341 26.6932 986.46 25.8878 986.699 25.2202C986.94 24.5497 987.287 24.0384 987.739 23.6861C988.193 23.331 988.739 23.1534 989.375 23.1534C990.011 23.1534 990.555 23.331 991.007 23.6861C991.462 24.0384 991.808 24.5497 992.047 25.2202C992.288 25.8878 992.409 26.6932 992.409 27.6364C992.409 28.5852 992.29 29.3949 992.051 30.0653C991.812 30.733 991.467 31.2429 991.016 31.5952C990.564 31.9446 990.017 32.1193 989.375 32.1193ZM989.375 31.1818C990.011 31.1818 990.506 30.875 990.858 30.2614C991.21 29.6477 991.386 28.7727 991.386 27.6364C991.386 26.8807 991.305 26.2372 991.143 25.706C990.984 25.1747 990.754 24.7699 990.453 24.4915C990.155 24.2131 989.795 24.0739 989.375 24.0739C988.744 24.0739 988.251 24.3849 987.896 25.0071C987.541 25.6264 987.364 26.5028 987.364 27.6364C987.364 28.392 987.443 29.0341 987.602 29.5625C987.761 30.0909 987.99 30.4929 988.288 30.7685C988.589 31.044 988.952 31.1818 989.375 31.1818Z" fill="white"/>
<path d="M969.176 77L973.08 69.2784V69.2102H968.58V68.2727H974.17V69.2614L970.284 77H969.176ZM975.009 77.0682C974.799 77.0682 974.618 76.9929 974.468 76.8423C974.317 76.6918 974.242 76.5114 974.242 76.3011C974.242 76.0909 974.317 75.9105 974.468 75.7599C974.618 75.6094 974.799 75.5341 975.009 75.5341C975.219 75.5341 975.4 75.6094 975.55 75.7599C975.701 75.9105 975.776 76.0909 975.776 76.3011C975.776 76.4403 975.74 76.5682 975.669 76.6847C975.601 76.8011 975.509 76.8949 975.392 76.9659C975.279 77.0341 975.151 77.0682 975.009 77.0682ZM980.105 77.1193C979.463 77.1193 978.917 76.9446 978.465 76.5952C978.013 76.2429 977.668 75.733 977.429 75.0653C977.191 74.3949 977.071 73.5852 977.071 72.6364C977.071 71.6932 977.191 70.8878 977.429 70.2202C977.671 69.5497 978.017 69.0384 978.469 68.6861C978.924 68.331 979.469 68.1534 980.105 68.1534C980.742 68.1534 981.286 68.331 981.738 68.6861C982.192 69.0384 982.539 69.5497 982.777 70.2202C983.019 70.8878 983.14 71.6932 983.14 72.6364C983.14 73.5852 983.02 74.3949 982.782 75.0653C982.543 75.733 982.198 76.2429 981.746 76.5952C981.294 76.9446 980.748 77.1193 980.105 77.1193ZM980.105 76.1818C980.742 76.1818 981.236 75.875 981.588 75.2614C981.941 74.6477 982.117 73.7727 982.117 72.6364C982.117 71.8807 982.036 71.2372 981.874 70.706C981.715 70.1747 981.485 69.7699 981.184 69.4915C980.885 69.2131 980.526 69.0739 980.105 69.0739C979.475 69.0739 978.982 69.3849 978.627 70.0071C978.272 70.6264 978.094 71.5028 978.094 72.6364C978.094 73.392 978.174 74.0341 978.333 74.5625C978.492 75.0909 978.721 75.4929 979.019 75.7685C979.32 76.044 979.682 76.1818 980.105 76.1818ZM987.605 77.1193C986.963 77.1193 986.417 76.9446 985.965 76.5952C985.513 76.2429 985.168 75.733 984.929 75.0653C984.691 74.3949 984.571 73.5852 984.571 72.6364C984.571 71.6932 984.691 70.8878 984.929 70.2202C985.171 69.5497 985.517 69.0384 985.969 68.6861C986.424 68.331 986.969 68.1534 987.605 68.1534C988.242 68.1534 988.786 68.331 989.238 68.6861C989.692 69.0384 990.039 69.5497 990.277 70.2202C990.519 70.8878 990.64 71.6932 990.64 72.6364C990.64 73.5852 990.52 74.3949 990.282 75.0653C990.043 75.733 989.698 76.2429 989.246 76.5952C988.794 76.9446 988.248 77.1193 987.605 77.1193ZM987.605 76.1818C988.242 76.1818 988.736 75.875 989.088 75.2614C989.441 74.6477 989.617 73.7727 989.617 72.6364C989.617 71.8807 989.536 71.2372 989.374 70.706C989.215 70.1747 988.985 69.7699 988.684 69.4915C988.385 69.2131 988.026 69.0739 987.605 69.0739C986.975 69.0739 986.482 69.3849 986.127 70.0071C985.772 70.6264 985.594 71.5028 985.594 72.6364C985.594 73.392 985.674 74.0341 985.833 74.5625C985.992 75.0909 986.221 75.4929 986.519 75.7685C986.82 76.044 987.182 76.1818 987.605 76.1818Z" fill="white"/>
<path d="M971.801 122.119C971.443 122.114 971.085 122.045 970.727 121.915C970.369 121.784 970.043 121.564 969.747 121.254C969.452 120.942 969.214 120.52 969.036 119.989C968.857 119.455 968.767 118.784 968.767 117.977C968.767 117.205 968.839 116.52 968.984 115.923C969.129 115.324 969.339 114.82 969.615 114.411C969.891 113.999 970.223 113.686 970.612 113.473C971.004 113.26 971.446 113.153 971.938 113.153C972.426 113.153 972.861 113.251 973.241 113.447C973.625 113.641 973.938 113.911 974.179 114.257C974.42 114.604 974.577 115.003 974.648 115.455H973.608C973.511 115.062 973.324 114.737 973.045 114.479C972.767 114.22 972.398 114.091 971.938 114.091C971.261 114.091 970.729 114.385 970.339 114.973C969.953 115.561 969.759 116.386 969.756 117.449H969.824C969.983 117.207 970.172 117.001 970.391 116.831C970.612 116.658 970.857 116.524 971.124 116.43C971.391 116.337 971.673 116.29 971.972 116.29C972.472 116.29 972.929 116.415 973.344 116.665C973.759 116.912 974.091 117.254 974.341 117.692C974.591 118.126 974.716 118.625 974.716 119.188C974.716 119.727 974.595 120.222 974.354 120.67C974.112 121.116 973.773 121.472 973.335 121.736C972.901 121.997 972.389 122.125 971.801 122.119ZM971.801 121.182C972.159 121.182 972.48 121.092 972.764 120.913C973.051 120.734 973.277 120.494 973.442 120.193C973.609 119.892 973.693 119.557 973.693 119.188C973.693 118.827 973.612 118.499 973.45 118.203C973.291 117.905 973.071 117.668 972.79 117.491C972.511 117.315 972.193 117.227 971.835 117.227C971.565 117.227 971.314 117.281 971.081 117.389C970.848 117.494 970.643 117.639 970.467 117.824C970.294 118.009 970.158 118.22 970.058 118.459C969.959 118.695 969.909 118.943 969.909 119.205C969.909 119.551 969.99 119.875 970.152 120.176C970.317 120.477 970.541 120.72 970.825 120.905C971.112 121.089 971.438 121.182 971.801 121.182ZM976.732 122.068C976.521 122.068 976.341 121.993 976.19 121.842C976.04 121.692 975.964 121.511 975.964 121.301C975.964 121.091 976.04 120.911 976.19 120.76C976.341 120.609 976.521 120.534 976.732 120.534C976.942 120.534 977.122 120.609 977.273 120.76C977.423 120.911 977.499 121.091 977.499 121.301C977.499 121.44 977.463 121.568 977.392 121.685C977.324 121.801 977.232 121.895 977.115 121.966C977.001 122.034 976.874 122.068 976.732 122.068ZM981.828 122.119C981.186 122.119 980.639 121.945 980.188 121.595C979.736 121.243 979.391 120.733 979.152 120.065C978.913 119.395 978.794 118.585 978.794 117.636C978.794 116.693 978.913 115.888 979.152 115.22C979.393 114.55 979.74 114.038 980.192 113.686C980.646 113.331 981.192 113.153 981.828 113.153C982.464 113.153 983.009 113.331 983.46 113.686C983.915 114.038 984.261 114.55 984.5 115.22C984.741 115.888 984.862 116.693 984.862 117.636C984.862 118.585 984.743 119.395 984.504 120.065C984.266 120.733 983.92 121.243 983.469 121.595C983.017 121.945 982.47 122.119 981.828 122.119ZM981.828 121.182C982.464 121.182 982.959 120.875 983.311 120.261C983.663 119.648 983.839 118.773 983.839 117.636C983.839 116.881 983.759 116.237 983.597 115.706C983.438 115.175 983.207 114.77 982.906 114.491C982.608 114.213 982.249 114.074 981.828 114.074C981.197 114.074 980.705 114.385 980.349 115.007C979.994 115.626 979.817 116.503 979.817 117.636C979.817 118.392 979.896 119.034 980.055 119.562C980.214 120.091 980.443 120.493 980.741 120.768C981.043 121.044 981.405 121.182 981.828 121.182ZM989.328 122.119C988.686 122.119 988.139 121.945 987.688 121.595C987.236 121.243 986.891 120.733 986.652 120.065C986.413 119.395 986.294 118.585 986.294 117.636C986.294 116.693 986.413 115.888 986.652 115.22C986.893 114.55 987.24 114.038 987.692 113.686C988.146 113.331 988.692 113.153 989.328 113.153C989.964 113.153 990.509 113.331 990.96 113.686C991.415 114.038 991.761 114.55 992 115.22C992.241 115.888 992.362 116.693 992.362 117.636C992.362 118.585 992.243 119.395 992.004 120.065C991.766 120.733 991.42 121.243 990.969 121.595C990.517 121.945 989.97 122.119 989.328 122.119ZM989.328 121.182C989.964 121.182 990.459 120.875 990.811 120.261C991.163 119.648 991.339 118.773 991.339 117.636C991.339 116.881 991.259 116.237 991.097 115.706C990.938 115.175 990.707 114.77 990.406 114.491C990.108 114.213 989.749 114.074 989.328 114.074C988.697 114.074 988.205 114.385 987.849 115.007C987.494 115.626 987.317 116.503 987.317 117.636C987.317 118.392 987.396 119.034 987.555 119.562C987.714 120.091 987.943 120.493 988.241 120.768C988.543 121.044 988.905 121.182 989.328 121.182Z" fill="white"/>
<path d="M971.631 167.119C971.131 167.119 970.68 167.02 970.28 166.821C969.879 166.622 969.558 166.349 969.317 166.003C969.075 165.656 968.943 165.261 968.92 164.818H969.943C969.983 165.213 970.162 165.54 970.48 165.798C970.801 166.054 971.185 166.182 971.631 166.182C971.989 166.182 972.307 166.098 972.585 165.93C972.866 165.763 973.087 165.533 973.246 165.24C973.408 164.945 973.489 164.611 973.489 164.239C973.489 163.858 973.405 163.518 973.237 163.22C973.072 162.919 972.845 162.682 972.555 162.509C972.266 162.335 971.935 162.247 971.562 162.244C971.295 162.241 971.021 162.283 970.74 162.368C970.459 162.45 970.227 162.557 970.045 162.688L969.057 162.568L969.585 158.273H974.119V159.21H970.472L970.165 161.784H970.216C970.395 161.642 970.619 161.524 970.889 161.43C971.159 161.337 971.44 161.29 971.733 161.29C972.267 161.29 972.743 161.418 973.161 161.673C973.581 161.926 973.911 162.273 974.149 162.713C974.391 163.153 974.511 163.656 974.511 164.222C974.511 164.778 974.386 165.276 974.136 165.713C973.889 166.148 973.548 166.491 973.114 166.744C972.679 166.994 972.185 167.119 971.631 167.119ZM976.626 167.068C976.416 167.068 976.235 166.993 976.085 166.842C975.934 166.692 975.859 166.511 975.859 166.301C975.859 166.091 975.934 165.911 976.085 165.76C976.235 165.609 976.416 165.534 976.626 165.534C976.836 165.534 977.017 165.609 977.167 165.76C977.318 165.911 977.393 166.091 977.393 166.301C977.393 166.44 977.358 166.568 977.287 166.685C977.218 166.801 977.126 166.895 977.01 166.966C976.896 167.034 976.768 167.068 976.626 167.068ZM981.723 167.119C981.081 167.119 980.534 166.945 980.082 166.595C979.63 166.243 979.285 165.733 979.047 165.065C978.808 164.395 978.689 163.585 978.689 162.636C978.689 161.693 978.808 160.888 979.047 160.22C979.288 159.55 979.635 159.038 980.086 158.686C980.541 158.331 981.086 158.153 981.723 158.153C982.359 158.153 982.903 158.331 983.355 158.686C983.809 159.038 984.156 159.55 984.395 160.22C984.636 160.888 984.757 161.693 984.757 162.636C984.757 163.585 984.637 164.395 984.399 165.065C984.16 165.733 983.815 166.243 983.363 166.595C982.912 166.945 982.365 167.119 981.723 167.119ZM981.723 166.182C982.359 166.182 982.853 165.875 983.206 165.261C983.558 164.648 983.734 163.773 983.734 162.636C983.734 161.881 983.653 161.237 983.491 160.706C983.332 160.175 983.102 159.77 982.801 159.491C982.502 159.213 982.143 159.074 981.723 159.074C981.092 159.074 980.599 159.385 980.244 160.007C979.889 160.626 979.711 161.503 979.711 162.636C979.711 163.392 979.791 164.034 979.95 164.562C980.109 165.091 980.338 165.493 980.636 165.768C980.937 166.044 981.299 166.182 981.723 166.182ZM989.223 167.119C988.581 167.119 988.034 166.945 987.582 166.595C987.13 166.243 986.785 165.733 986.547 165.065C986.308 164.395 986.189 163.585 986.189 162.636C986.189 161.693 986.308 160.888 986.547 160.22C986.788 159.55 987.135 159.038 987.586 158.686C988.041 158.331 988.586 158.153 989.223 158.153C989.859 158.153 990.403 158.331 990.855 158.686C991.309 159.038 991.656 159.55 991.895 160.22C992.136 160.888 992.257 161.693 992.257 162.636C992.257 163.585 992.137 164.395 991.899 165.065C991.66 165.733 991.315 166.243 990.863 166.595C990.412 166.945 989.865 167.119 989.223 167.119ZM989.223 166.182C989.859 166.182 990.353 165.875 990.706 165.261C991.058 164.648 991.234 163.773 991.234 162.636C991.234 161.881 991.153 161.237 990.991 160.706C990.832 160.175 990.602 159.77 990.301 159.491C990.002 159.213 989.643 159.074 989.223 159.074C988.592 159.074 988.099 159.385 987.744 160.007C987.389 160.626 987.211 161.503 987.211 162.636C987.211 163.392 987.291 164.034 987.45 164.562C987.609 165.091 987.838 165.493 988.136 165.768C988.437 166.044 988.799 166.182 989.223 166.182Z" fill="white"/>
<path d="M968.699 210.21V209.341L972.534 203.273H973.165V204.619H972.739L969.841 209.205V209.273H975.006V210.21H968.699ZM972.807 212V209.946V209.541V203.273H973.812V212H972.807ZM976.942 212.068C976.732 212.068 976.552 211.993 976.401 211.842C976.251 211.692 976.175 211.511 976.175 211.301C976.175 211.091 976.251 210.911 976.401 210.76C976.552 210.609 976.732 210.534 976.942 210.534C977.153 210.534 977.333 210.609 977.484 210.76C977.634 210.911 977.71 211.091 977.71 211.301C977.71 211.44 977.674 211.568 977.603 211.685C977.535 211.801 977.442 211.895 977.326 211.966C977.212 212.034 977.085 212.068 976.942 212.068ZM982.039 212.119C981.397 212.119 980.85 211.945 980.398 211.595C979.947 211.243 979.602 210.733 979.363 210.065C979.124 209.395 979.005 208.585 979.005 207.636C979.005 206.693 979.124 205.888 979.363 205.22C979.604 204.55 979.951 204.038 980.403 203.686C980.857 203.331 981.403 203.153 982.039 203.153C982.675 203.153 983.219 203.331 983.671 203.686C984.126 204.038 984.472 204.55 984.711 205.22C984.952 205.888 985.073 206.693 985.073 207.636C985.073 208.585 984.954 209.395 984.715 210.065C984.477 210.733 984.131 211.243 983.68 211.595C983.228 211.945 982.681 212.119 982.039 212.119ZM982.039 211.182C982.675 211.182 983.17 210.875 983.522 210.261C983.874 209.648 984.05 208.773 984.05 207.636C984.05 206.881 983.969 206.237 983.808 205.706C983.648 205.175 983.418 204.77 983.117 204.491C982.819 204.213 982.46 204.074 982.039 204.074C981.408 204.074 980.915 204.385 980.56 205.007C980.205 205.626 980.028 206.503 980.028 207.636C980.028 208.392 980.107 209.034 980.266 209.562C980.425 210.091 980.654 210.493 980.952 210.768C981.254 211.044 981.616 211.182 982.039 211.182ZM989.539 212.119C988.897 212.119 988.35 211.945 987.898 211.595C987.447 211.243 987.102 210.733 986.863 210.065C986.624 209.395 986.505 208.585 986.505 207.636C986.505 206.693 986.624 205.888 986.863 205.22C987.104 204.55 987.451 204.038 987.903 203.686C988.357 203.331 988.903 203.153 989.539 203.153C990.175 203.153 990.719 203.331 991.171 203.686C991.626 204.038 991.972 204.55 992.211 205.22C992.452 205.888 992.573 206.693 992.573 207.636C992.573 208.585 992.454 209.395 992.215 210.065C991.977 210.733 991.631 211.243 991.18 211.595C990.728 211.945 990.181 212.119 989.539 212.119ZM989.539 211.182C990.175 211.182 990.67 210.875 991.022 210.261C991.374 209.648 991.55 208.773 991.55 207.636C991.55 206.881 991.469 206.237 991.308 205.706C991.148 205.175 990.918 204.77 990.617 204.491C990.319 204.213 989.96 204.074 989.539 204.074C988.908 204.074 988.415 204.385 988.06 205.007C987.705 205.626 987.528 206.503 987.528 207.636C987.528 208.392 987.607 209.034 987.766 209.562C987.925 210.091 988.154 210.493 988.452 210.768C988.754 211.044 989.116 211.182 989.539 211.182Z" fill="white"/>
<path opacity="0.8" d="M971.852 257.119C971.29 257.119 970.788 257.023 970.348 256.83C969.911 256.636 969.563 256.368 969.304 256.024C969.048 255.678 968.909 255.276 968.886 254.818H969.96C969.983 255.099 970.08 255.342 970.25 255.547C970.42 255.749 970.643 255.905 970.919 256.016C971.195 256.126 971.5 256.182 971.835 256.182C972.21 256.182 972.543 256.116 972.832 255.986C973.122 255.855 973.349 255.673 973.514 255.44C973.679 255.207 973.761 254.938 973.761 254.631C973.761 254.31 973.682 254.027 973.523 253.783C973.364 253.536 973.131 253.342 972.824 253.203C972.517 253.064 972.142 252.994 971.699 252.994H971V252.057H971.699C972.045 252.057 972.349 251.994 972.611 251.869C972.875 251.744 973.081 251.568 973.229 251.341C973.379 251.114 973.455 250.847 973.455 250.54C973.455 250.244 973.389 249.987 973.259 249.768C973.128 249.55 972.943 249.379 972.705 249.257C972.469 249.135 972.19 249.074 971.869 249.074C971.568 249.074 971.284 249.129 971.017 249.24C970.753 249.348 970.537 249.506 970.369 249.713C970.202 249.918 970.111 250.165 970.097 250.455H969.074C969.091 249.997 969.229 249.597 969.487 249.253C969.746 248.906 970.084 248.636 970.501 248.443C970.922 248.25 971.384 248.153 971.886 248.153C972.426 248.153 972.889 248.263 973.276 248.482C973.662 248.697 973.959 248.983 974.166 249.338C974.374 249.693 974.477 250.077 974.477 250.489C974.477 250.98 974.348 251.399 974.089 251.746C973.834 252.092 973.486 252.332 973.045 252.466V252.534C973.597 252.625 974.027 252.859 974.337 253.237C974.646 253.612 974.801 254.077 974.801 254.631C974.801 255.105 974.672 255.531 974.413 255.909C974.158 256.284 973.808 256.58 973.365 256.795C972.922 257.011 972.418 257.119 971.852 257.119ZM977.025 257.068C976.814 257.068 976.634 256.993 976.483 256.842C976.333 256.692 976.257 256.511 976.257 256.301C976.257 256.091 976.333 255.911 976.483 255.76C976.634 255.609 976.814 255.534 977.025 255.534C977.235 255.534 977.415 255.609 977.566 255.76C977.716 255.911 977.792 256.091 977.792 256.301C977.792 256.44 977.756 256.568 977.685 256.685C977.617 256.801 977.525 256.895 977.408 256.966C977.294 257.034 977.167 257.068 977.025 257.068ZM982.121 257.119C981.479 257.119 980.932 256.945 980.48 256.595C980.029 256.243 979.684 255.733 979.445 255.065C979.206 254.395 979.087 253.585 979.087 252.636C979.087 251.693 979.206 250.888 979.445 250.22C979.686 249.55 980.033 249.038 980.485 248.686C980.939 248.331 981.485 248.153 982.121 248.153C982.757 248.153 983.301 248.331 983.753 248.686C984.208 249.038 984.554 249.55 984.793 250.22C985.034 250.888 985.155 251.693 985.155 252.636C985.155 253.585 985.036 254.395 984.797 255.065C984.559 255.733 984.213 256.243 983.762 256.595C983.31 256.945 982.763 257.119 982.121 257.119ZM982.121 256.182C982.757 256.182 983.252 255.875 983.604 255.261C983.956 254.648 984.132 253.773 984.132 252.636C984.132 251.881 984.051 251.237 983.89 250.706C983.73 250.175 983.5 249.77 983.199 249.491C982.901 249.213 982.542 249.074 982.121 249.074C981.49 249.074 980.998 249.385 980.642 250.007C980.287 250.626 980.11 251.503 980.11 252.636C980.11 253.392 980.189 254.034 980.348 254.562C980.507 255.091 980.736 255.493 981.034 255.768C981.336 256.044 981.698 256.182 982.121 256.182ZM989.621 257.119C988.979 257.119 988.432 256.945 987.98 256.595C987.529 256.243 987.184 255.733 986.945 255.065C986.706 254.395 986.587 253.585 986.587 252.636C986.587 251.693 986.706 250.888 986.945 250.22C987.186 249.55 987.533 249.038 987.985 248.686C988.439 248.331 988.985 248.153 989.621 248.153C990.257 248.153 990.801 248.331 991.253 248.686C991.708 249.038 992.054 249.55 992.293 250.22C992.534 250.888 992.655 251.693 992.655 252.636C992.655 253.585 992.536 254.395 992.297 255.065C992.059 255.733 991.713 256.243 991.262 256.595C990.81 256.945 990.263 257.119 989.621 257.119ZM989.621 256.182C990.257 256.182 990.752 255.875 991.104 255.261C991.456 254.648 991.632 253.773 991.632 252.636C991.632 251.881 991.551 251.237 991.39 250.706C991.23 250.175 991 249.77 990.699 249.491C990.401 249.213 990.042 249.074 989.621 249.074C988.99 249.074 988.498 249.385 988.142 250.007C987.787 250.626 987.61 251.503 987.61 252.636C987.61 253.392 987.689 254.034 987.848 254.562C988.007 255.091 988.236 255.493 988.534 255.768C988.836 256.044 989.198 256.182 989.621 256.182Z" fill="white"/>
<path opacity="0.3" d="M968.903 302V301.233L971.784 298.08C972.122 297.71 972.401 297.389 972.619 297.116C972.838 296.841 973 296.582 973.105 296.341C973.213 296.097 973.267 295.841 973.267 295.574C973.267 295.267 973.193 295.001 973.045 294.777C972.901 294.553 972.702 294.379 972.449 294.257C972.196 294.135 971.912 294.074 971.597 294.074C971.261 294.074 970.969 294.143 970.719 294.283C970.472 294.419 970.28 294.611 970.143 294.858C970.01 295.105 969.943 295.395 969.943 295.727H968.938C968.938 295.216 969.055 294.767 969.291 294.381C969.527 293.994 969.848 293.693 970.254 293.477C970.663 293.261 971.122 293.153 971.631 293.153C972.142 293.153 972.595 293.261 972.99 293.477C973.385 293.693 973.695 293.984 973.919 294.351C974.143 294.717 974.256 295.125 974.256 295.574C974.256 295.895 974.197 296.209 974.081 296.516C973.967 296.82 973.768 297.159 973.484 297.534C973.203 297.906 972.812 298.361 972.312 298.898L970.352 300.994V301.062H974.409V302H968.903ZM976.919 302.068C976.709 302.068 976.528 301.993 976.378 301.842C976.227 301.692 976.152 301.511 976.152 301.301C976.152 301.091 976.227 300.911 976.378 300.76C976.528 300.609 976.709 300.534 976.919 300.534C977.129 300.534 977.31 300.609 977.46 300.76C977.611 300.911 977.686 301.091 977.686 301.301C977.686 301.44 977.651 301.568 977.58 301.685C977.511 301.801 977.419 301.895 977.303 301.966C977.189 302.034 977.061 302.068 976.919 302.068ZM982.016 302.119C981.374 302.119 980.827 301.945 980.375 301.595C979.923 301.243 979.578 300.733 979.339 300.065C979.101 299.395 978.982 298.585 978.982 297.636C978.982 296.693 979.101 295.888 979.339 295.22C979.581 294.55 979.928 294.038 980.379 293.686C980.834 293.331 981.379 293.153 982.016 293.153C982.652 293.153 983.196 293.331 983.648 293.686C984.102 294.038 984.449 294.55 984.688 295.22C984.929 295.888 985.05 296.693 985.05 297.636C985.05 298.585 984.93 299.395 984.692 300.065C984.453 300.733 984.108 301.243 983.656 301.595C983.205 301.945 982.658 302.119 982.016 302.119ZM982.016 301.182C982.652 301.182 983.146 300.875 983.499 300.261C983.851 299.648 984.027 298.773 984.027 297.636C984.027 296.881 983.946 296.237 983.784 295.706C983.625 295.175 983.395 294.77 983.094 294.491C982.795 294.213 982.436 294.074 982.016 294.074C981.385 294.074 980.892 294.385 980.537 295.007C980.182 295.626 980.004 296.503 980.004 297.636C980.004 298.392 980.084 299.034 980.243 299.562C980.402 300.091 980.631 300.493 980.929 300.768C981.23 301.044 981.592 301.182 982.016 301.182ZM989.516 302.119C988.874 302.119 988.327 301.945 987.875 301.595C987.423 301.243 987.078 300.733 986.839 300.065C986.601 299.395 986.482 298.585 986.482 297.636C986.482 296.693 986.601 295.888 986.839 295.22C987.081 294.55 987.428 294.038 987.879 293.686C988.334 293.331 988.879 293.153 989.516 293.153C990.152 293.153 990.696 293.331 991.148 293.686C991.602 294.038 991.949 294.55 992.188 295.22C992.429 295.888 992.55 296.693 992.55 297.636C992.55 298.585 992.43 299.395 992.192 300.065C991.953 300.733 991.608 301.243 991.156 301.595C990.705 301.945 990.158 302.119 989.516 302.119ZM989.516 301.182C990.152 301.182 990.646 300.875 990.999 300.261C991.351 299.648 991.527 298.773 991.527 297.636C991.527 296.881 991.446 296.237 991.284 295.706C991.125 295.175 990.895 294.77 990.594 294.491C990.295 294.213 989.936 294.074 989.516 294.074C988.885 294.074 988.392 294.385 988.037 295.007C987.682 295.626 987.504 296.503 987.504 297.636C987.504 298.392 987.584 299.034 987.743 299.562C987.902 300.091 988.131 300.493 988.429 300.768C988.73 301.044 989.092 301.182 989.516 301.182Z" fill="white"/>
<path opacity="0.1" d="M971.972 338.273V347H970.915V339.381H970.864L968.733 340.795V339.722L970.915 338.273H971.972ZM974.716 347.068C974.506 347.068 974.325 346.993 974.175 346.842C974.024 346.692 973.949 346.511 973.949 346.301C973.949 346.091 974.024 345.911 974.175 345.76C974.325 345.609 974.506 345.534 974.716 345.534C974.926 345.534 975.107 345.609 975.257 345.76C975.408 345.911 975.483 346.091 975.483 346.301C975.483 346.44 975.447 346.568 975.376 346.685C975.308 346.801 975.216 346.895 975.099 346.966C974.986 347.034 974.858 347.068 974.716 347.068ZM979.812 347.119C979.17 347.119 978.624 346.945 978.172 346.595C977.72 346.243 977.375 345.733 977.136 345.065C976.898 344.395 976.778 343.585 976.778 342.636C976.778 341.693 976.898 340.888 977.136 340.22C977.378 339.55 977.724 339.038 978.176 338.686C978.631 338.331 979.176 338.153 979.812 338.153C980.449 338.153 980.993 338.331 981.445 338.686C981.899 339.038 982.246 339.55 982.484 340.22C982.726 340.888 982.847 341.693 982.847 342.636C982.847 343.585 982.727 344.395 982.489 345.065C982.25 345.733 981.905 346.243 981.453 346.595C981.001 346.945 980.455 347.119 979.812 347.119ZM979.812 346.182C980.449 346.182 980.943 345.875 981.295 345.261C981.648 344.648 981.824 343.773 981.824 342.636C981.824 341.881 981.743 341.237 981.581 340.706C981.422 340.175 981.192 339.77 980.891 339.491C980.592 339.213 980.233 339.074 979.812 339.074C979.182 339.074 978.689 339.385 978.334 340.007C977.979 340.626 977.801 341.503 977.801 342.636C977.801 343.392 977.881 344.034 978.04 344.562C978.199 345.091 978.428 345.493 978.726 345.768C979.027 346.044 979.389 346.182 979.812 346.182ZM987.312 347.119C986.67 347.119 986.124 346.945 985.672 346.595C985.22 346.243 984.875 345.733 984.636 345.065C984.398 344.395 984.278 343.585 984.278 342.636C984.278 341.693 984.398 340.888 984.636 340.22C984.878 339.55 985.224 339.038 985.676 338.686C986.131 338.331 986.676 338.153 987.312 338.153C987.949 338.153 988.493 338.331 988.945 338.686C989.399 339.038 989.746 339.55 989.984 340.22C990.226 340.888 990.347 341.693 990.347 342.636C990.347 343.585 990.227 344.395 989.989 345.065C989.75 345.733 989.405 346.243 988.953 346.595C988.501 346.945 987.955 347.119 987.312 347.119ZM987.312 346.182C987.949 346.182 988.443 345.875 988.795 345.261C989.148 344.648 989.324 343.773 989.324 342.636C989.324 341.881 989.243 341.237 989.081 340.706C988.922 340.175 988.692 339.77 988.391 339.491C988.092 339.213 987.733 339.074 987.312 339.074C986.682 339.074 986.189 339.385 985.834 340.007C985.479 340.626 985.301 341.503 985.301 342.636C985.301 343.392 985.381 344.034 985.54 344.562C985.699 345.091 985.928 345.493 986.226 345.768C986.527 346.044 986.889 346.182 987.312 346.182Z" fill="white"/>
<rect x="849" y="586" width="586" height="165" transform="rotate(-90 849 586)" fill="url(#paint0_linear_1_1183)"/>
<rect x="-65" y="244" width="1062" height="342" fill="url(#paint1_linear_1_1183)"/>
<g filter="url(#filter1_f_1_1183)">
<path d="M564.943 0H787.749L909 525H444L564.943 0Z" fill="url(#paint2_linear_1_1183)"/>
</g>
<path d="M565.076 0H787.885L789 3H564L565.076 0Z" fill="#58E8BB"/>
<g clip-path="url(#clip2_1_1183)">
<path fill-rule="evenodd" clip-rule="evenodd" d="M676.52 216.002C676.548 216.012 677.277 217.432 678.141 219.167C679.005 220.898 679.777 222.434 679.859 222.579C679.941 222.725 680.173 223.161 680.371 223.549C680.573 223.937 681.099 224.94 681.544 225.778C681.987 226.617 682.663 227.925 683.044 228.686C683.425 229.447 683.894 230.373 684.091 230.746C684.285 231.119 684.603 231.73 684.796 232.103C684.994 232.476 685.221 232.913 685.308 233.073C685.395 233.233 685.703 233.824 685.993 234.381C686.287 234.939 686.843 236.01 687.229 236.756C687.61 237.503 688.126 238.506 688.372 238.986C688.618 239.465 689.125 240.444 689.497 241.167C689.868 241.884 690.269 242.659 690.389 242.887C690.505 243.115 690.665 243.406 690.737 243.541C690.809 243.672 691.031 244.099 691.234 244.487C691.432 244.874 692.054 246.096 692.619 247.201C693.184 248.306 693.802 249.517 693.995 249.891C694.188 250.264 694.598 251.068 694.912 251.684C695.225 252.299 695.669 253.157 695.901 253.598C696.132 254.04 696.557 254.834 696.842 255.367C697.127 255.901 697.638 256.86 697.976 257.5C698.314 258.14 698.768 259.012 698.989 259.439C699.207 259.865 699.631 260.684 699.93 261.256C700.23 261.828 700.828 262.977 701.258 263.801C701.692 264.625 702.107 265.424 702.189 265.57C702.266 265.715 702.469 266.108 702.638 266.442C702.807 266.777 703.043 267.232 703.164 267.46C703.289 267.688 703.584 268.255 703.825 268.72C704.067 269.186 704.303 269.626 704.356 269.699C704.404 269.777 704.491 269.859 704.549 269.893C704.612 269.922 705.007 269.99 705.432 270.039C705.857 270.087 706.518 270.159 706.904 270.198C707.29 270.237 707.855 270.305 708.159 270.344C708.463 270.383 709.346 270.494 710.113 270.586C710.881 270.683 712.116 270.848 712.85 270.949C713.588 271.056 714.621 271.211 715.142 271.289C715.668 271.371 716.445 271.497 716.87 271.58C717.295 271.657 718.067 271.788 718.583 271.871C719.1 271.953 719.804 272.074 720.152 272.137C720.494 272.2 721.319 272.36 721.985 272.496C722.647 272.626 723.453 272.796 723.771 272.864C724.089 272.932 724.804 273.087 725.364 273.203C725.924 273.325 726.768 273.518 727.246 273.644C727.724 273.766 728.506 273.964 728.983 274.081C729.461 274.202 730.47 274.473 731.227 274.686C731.985 274.905 733.047 275.215 733.592 275.389C734.137 275.559 735.233 275.913 736.029 276.175C736.825 276.441 737.844 276.8 738.298 276.979C738.746 277.158 739.605 277.512 740.204 277.769C740.802 278.021 741.82 278.472 742.472 278.767C743.124 279.058 743.828 279.383 744.04 279.494C744.253 279.601 744.774 279.882 745.199 280.124C745.623 280.362 746.275 280.745 746.647 280.973C747.018 281.201 747.486 281.491 747.684 281.627C747.882 281.763 748.326 282.078 748.673 282.33C749.016 282.582 749.503 282.955 749.755 283.158C750 283.362 750.556 283.886 750.985 284.326C751.41 284.768 751.911 285.315 752.09 285.538C752.274 285.766 752.558 286.158 752.727 286.411C752.896 286.663 753.166 287.143 753.326 287.477C753.485 287.811 753.683 288.31 753.76 288.592C753.842 288.873 753.929 289.265 753.963 289.464C753.997 289.687 754.006 290.186 753.997 290.749C753.977 291.543 753.958 291.737 753.847 292.154C753.779 292.421 753.649 292.823 753.557 293.051C753.466 293.279 753.321 293.603 753.234 293.778C753.147 293.952 752.988 294.233 752.882 294.408C752.771 294.582 752.52 294.941 752.322 295.203C752.119 295.469 751.661 296.002 751.303 296.39C750.947 296.773 750.435 297.287 750.169 297.524C749.904 297.766 749.402 298.173 749.059 298.43C748.712 298.687 748.162 299.085 747.829 299.313C747.496 299.54 746.791 299.986 746.26 300.306C745.729 300.626 744.938 301.077 744.499 301.305C744.06 301.532 743.201 301.949 742.593 302.225C741.98 302.507 740.961 302.957 740.324 303.229C739.687 303.5 738.732 303.893 738.201 304.101C737.67 304.309 736.386 304.756 735.353 305.095C734.321 305.429 732.68 305.938 731.71 306.214C730.74 306.496 729.036 306.951 727.921 307.227C726.806 307.508 725.479 307.818 724.978 307.925C724.476 308.032 723.54 308.226 722.902 308.361C722.265 308.492 721.517 308.647 721.237 308.701C720.958 308.754 720.436 308.851 720.079 308.919C719.722 308.986 719.013 309.108 718.511 309.19C718.009 309.273 717.169 309.413 716.653 309.505C716.136 309.597 715.051 309.772 714.24 309.888C713.429 310.009 712.377 310.16 711.899 310.227C711.421 310.295 710.475 310.416 709.8 310.499C709.124 310.581 708.333 310.678 708.038 310.717C707.744 310.756 707.16 310.823 706.735 310.867C706.311 310.906 705.65 310.983 705.263 311.027C704.563 311.114 704.563 311.114 704.419 311.284C704.337 311.381 704.124 311.749 703.941 312.103C703.757 312.462 703.429 313.092 703.212 313.504C702.995 313.916 702.648 314.58 702.44 314.982C702.232 315.379 701.779 316.252 701.427 316.921C701.074 317.584 700.635 318.428 700.452 318.787C700.268 319.145 699.699 320.25 699.187 321.234C698.676 322.218 698.208 323.115 698.145 323.221C698.087 323.328 697.913 323.653 697.759 323.948C697.604 324.244 697.305 324.806 697.093 325.209C696.88 325.606 696.562 326.207 696.384 326.541C696.205 326.876 695.775 327.69 695.433 328.359C695.085 329.023 694.583 330.007 694.308 330.54C694.038 331.073 693.584 331.955 693.304 332.503C693.029 333.051 692.61 333.87 692.378 334.32C692.146 334.771 691.746 335.561 691.485 336.065C691.225 336.569 690.945 337.117 690.858 337.277C690.771 337.437 690.52 337.917 690.293 338.343C690.066 338.77 689.7 339.477 689.473 339.918C689.246 340.359 688.816 341.198 688.517 341.784C688.218 342.371 687.88 343.025 687.769 343.238C687.658 343.451 687.412 343.921 687.229 344.28C687.04 344.639 686.722 345.259 686.514 345.662C686.307 346.059 685.814 347.009 685.414 347.77C685.018 348.531 684.482 349.554 684.222 350.048C683.961 350.542 683.498 351.444 683.189 352.059C682.885 352.675 682.407 353.61 682.132 354.143C681.857 354.676 681.563 355.244 681.476 355.403C681.389 355.563 681.075 356.15 680.786 356.712C680.492 357.274 680.091 358.035 679.888 358.408C679.686 358.782 678.865 360.415 678.059 362.044C676.833 364.52 676.582 365 676.5 365C676.433 365 676.365 364.942 676.307 364.831C676.259 364.738 675.622 363.449 674.893 361.971C674.164 360.492 673.45 359.063 673.305 358.796C673.161 358.53 672.876 357.997 672.678 357.609C672.48 357.221 671.94 356.198 671.481 355.331C671.023 354.463 670.347 353.154 669.98 352.423C669.614 351.691 669.136 350.751 668.919 350.339C668.706 349.927 668.079 348.725 667.524 347.673C666.974 346.621 666.182 345.095 665.762 344.28C665.342 343.466 664.889 342.584 664.749 342.317C664.609 342.051 664.232 341.309 663.904 340.669C663.576 340.03 663.045 339.007 662.722 338.392C662.399 337.776 661.979 336.981 661.795 336.622C661.607 336.264 661.26 335.585 661.023 335.12C660.782 334.655 660.309 333.724 659.971 333.06C659.633 332.391 659.209 331.568 659.03 331.218C658.851 330.869 658.48 330.152 658.21 329.619C657.939 329.086 657.553 328.335 657.351 327.947C657.153 327.559 656.767 326.827 656.496 326.323C656.226 325.819 655.917 325.238 655.806 325.039C655.7 324.84 655.367 324.205 655.063 323.633C654.759 323.061 654.296 322.175 654.035 321.67C653.774 321.166 653.374 320.391 653.143 319.95C652.911 319.509 652.554 318.821 652.346 318.423C652.139 318.021 651.772 317.313 651.526 316.848C651.28 316.383 650.961 315.772 650.816 315.491C650.671 315.21 650.387 314.667 650.184 314.279C649.986 313.892 649.711 313.368 649.576 313.116C649.441 312.864 649.194 312.384 649.026 312.055C648.861 311.725 648.649 311.371 648.389 311.1L647.641 311.013C647.23 310.969 646.589 310.896 646.217 310.862C645.845 310.823 645.281 310.756 644.962 310.717C644.644 310.673 643.751 310.567 642.984 310.47C642.212 310.378 640.985 310.213 640.257 310.111C639.528 310.005 638.548 309.864 638.085 309.796C637.622 309.728 636.893 309.607 636.468 309.53C636.044 309.452 635.218 309.311 634.635 309.214C634.051 309.118 633.172 308.967 632.68 308.875C632.188 308.783 631.406 308.633 630.943 308.541C630.479 308.449 629.741 308.293 629.302 308.196C628.863 308.1 628.201 307.959 627.83 307.881C627.458 307.804 626.71 307.634 626.165 307.499C625.62 307.368 624.732 307.145 624.186 307.009C623.641 306.873 622.849 306.665 622.425 306.544C622 306.423 621.382 306.248 621.049 306.156C620.716 306.059 620.002 305.846 619.457 305.676C618.911 305.507 617.782 305.138 616.947 304.862C616.112 304.586 615.133 304.242 614.775 304.101C614.418 303.961 613.482 303.573 612.7 303.239C611.919 302.904 610.895 302.458 610.432 302.25C609.969 302.037 609.284 301.712 608.912 301.523C608.54 301.334 607.985 301.038 607.681 300.868C607.377 300.694 606.769 300.33 606.33 300.064C605.891 299.792 605.326 299.434 605.075 299.259C604.824 299.085 604.269 298.683 603.845 298.363C603.261 297.926 602.855 297.563 602.18 296.884C601.687 296.39 601.103 295.755 600.881 295.474C600.655 295.193 600.36 294.791 600.22 294.577C600.08 294.364 599.858 293.971 599.728 293.705C599.593 293.438 599.409 292.992 599.313 292.711C599.221 292.43 599.11 292.018 599.062 291.79C598.999 291.456 598.99 291.189 599.009 290.337C599.028 289.425 599.048 289.241 599.149 288.858C599.216 288.616 599.313 288.301 599.366 288.155C599.424 288.01 599.554 287.705 599.656 287.477C599.762 287.249 599.96 286.881 600.1 286.653C600.244 286.425 600.524 286.023 600.727 285.761C600.93 285.495 601.475 284.884 601.938 284.409C602.402 283.929 602.947 283.401 603.145 283.236C603.343 283.071 603.767 282.742 604.086 282.499C604.404 282.262 604.873 281.927 605.123 281.753C605.374 281.579 605.992 281.186 606.499 280.881C607.001 280.57 607.783 280.12 608.236 279.877C608.685 279.635 609.588 279.189 610.239 278.894C610.891 278.598 611.952 278.128 612.604 277.847C613.255 277.565 614.22 277.168 614.751 276.96C615.282 276.751 616.489 276.33 617.43 276.024C618.371 275.714 619.423 275.38 619.77 275.273C620.113 275.166 620.745 274.977 621.17 274.856C621.595 274.74 622.29 274.541 622.714 274.425C623.139 274.303 624.234 274.018 625.151 273.79C626.068 273.562 627.285 273.276 627.854 273.155C628.423 273.034 629.577 272.791 630.412 272.617C631.247 272.447 632.279 272.244 632.704 272.166C633.129 272.084 633.954 271.943 634.538 271.846C635.122 271.749 635.957 271.609 636.396 271.526C636.835 271.449 637.487 271.337 637.844 271.284C638.201 271.231 639.243 271.081 640.161 270.949C641.077 270.819 642.38 270.644 643.056 270.567C643.732 270.484 644.538 270.383 644.842 270.344C645.146 270.305 645.71 270.237 646.096 270.198C646.482 270.159 647.143 270.087 647.568 270.039C648.094 269.98 648.384 269.927 648.471 269.869C648.548 269.825 648.683 269.641 648.78 269.457C648.876 269.277 649.267 268.531 649.648 267.799C650.034 267.067 650.512 266.137 650.715 265.739C650.913 265.337 651.096 264.988 651.115 264.964C651.135 264.94 651.357 264.523 651.608 264.043C651.859 263.563 652.259 262.798 652.491 262.347C652.722 261.896 652.973 261.411 653.046 261.28C653.118 261.145 653.359 260.689 653.577 260.263C653.794 259.836 654.127 259.191 654.315 258.833C654.498 258.474 654.701 258.091 654.759 257.985C654.817 257.878 655.237 257.093 655.69 256.24C656.139 255.387 656.661 254.408 656.844 254.059C657.032 253.71 657.394 253.017 657.655 252.508C657.915 251.999 658.272 251.306 658.451 250.957C658.63 250.608 659.238 249.421 659.802 248.315C660.367 247.21 661.033 245.902 661.289 245.407C661.54 244.913 661.839 244.336 661.95 244.123C662.061 243.91 662.365 243.333 662.625 242.839C662.886 242.344 663.185 241.768 663.301 241.554C663.412 241.341 663.803 240.58 664.17 239.858C664.537 239.136 664.928 238.375 665.038 238.162C665.149 237.948 665.54 237.197 665.907 236.49C666.269 235.782 666.732 234.89 666.93 234.502C667.133 234.115 667.312 233.775 667.331 233.751C667.35 233.727 667.567 233.31 667.813 232.83C668.059 232.35 668.431 231.643 668.634 231.255C668.837 230.867 669.425 229.724 669.937 228.711C670.448 227.698 671.143 226.355 671.472 225.73C671.805 225.105 672.336 224.101 672.649 223.5C672.963 222.899 673.928 220.99 674.787 219.259C675.651 217.524 676.38 216.08 676.408 216.046C676.438 216.012 676.486 215.993 676.52 216.002ZM676.042 250.497C675.916 250.749 675.622 251.316 675.39 251.757C675.159 252.198 674.681 253.123 674.329 253.817C673.976 254.51 673.672 255.096 673.653 255.125C673.633 255.149 673.426 255.542 673.195 255.997C672.963 256.448 672.702 256.952 672.615 257.112C672.528 257.272 671.978 258.353 671.385 259.511C670.796 260.67 670.25 261.726 670.178 261.862C670.106 261.993 669.879 262.429 669.671 262.831C669.464 263.229 669.107 263.917 668.875 264.358C668.644 264.799 668.132 265.788 667.741 266.563C667.345 267.334 666.964 268.09 666.887 268.236C666.776 268.454 666.761 268.512 666.809 268.565C666.863 268.614 667.128 268.619 668.224 268.575C668.967 268.546 670.13 268.502 670.806 268.478C671.481 268.454 674.044 268.429 676.5 268.429C678.957 268.429 681.519 268.454 682.195 268.478C682.871 268.502 684.01 268.546 684.729 268.575C685.443 268.599 686.07 268.614 686.114 268.599C686.162 268.584 686.201 268.541 686.201 268.502C686.201 268.463 685.737 267.518 685.168 266.403C684.603 265.294 684.082 264.285 684.019 264.164C683.952 264.043 683.739 263.641 683.546 263.268C683.353 262.895 683.117 262.434 683.015 262.25C682.914 262.061 682.253 260.776 681.544 259.39C680.834 258.004 680.014 256.409 679.719 255.852C679.43 255.29 678.976 254.432 678.72 253.938C678.459 253.443 678.189 252.92 678.126 252.774C678.059 252.629 677.861 252.246 677.692 251.926C677.523 251.606 677.214 251.015 677.007 250.618C676.799 250.215 676.606 249.862 676.578 249.828C676.548 249.794 676.51 249.765 676.491 249.769C676.471 249.769 676.418 249.828 676.365 249.9C676.317 249.978 676.172 250.245 676.042 250.497ZM671.361 271.769C670.748 271.798 669.599 271.856 668.803 271.895C668.006 271.933 667.085 271.977 666.752 271.992C666.419 272.006 665.82 272.05 665.424 272.089C665.024 272.128 663.832 272.224 662.77 272.307C661.708 272.384 660.353 272.496 659.754 272.549C659.156 272.607 658.427 272.685 658.137 272.723C657.843 272.758 657.293 272.825 656.907 272.864C656.521 272.903 655.773 272.99 655.242 273.053C654.711 273.121 654.006 273.208 653.673 273.252C653.34 273.291 652.602 273.393 652.032 273.475C651.463 273.552 650.961 273.63 650.922 273.64C650.884 273.654 650.642 273.693 650.391 273.732C650.141 273.77 649.619 273.858 649.233 273.926C648.847 273.993 648.292 274.09 648.002 274.143C647.708 274.202 647.168 274.313 646.796 274.396C646.424 274.478 645.913 274.585 645.662 274.633C645.411 274.682 644.629 274.856 643.925 275.021C643.22 275.186 642.047 275.472 641.318 275.656C640.59 275.845 639.547 276.126 639.002 276.286C638.457 276.446 637.612 276.698 637.12 276.843C636.628 276.993 635.836 277.236 635.358 277.381C634.881 277.527 634.099 277.784 633.621 277.953C633.143 278.123 632.405 278.399 631.98 278.574C631.556 278.748 630.861 279.029 630.436 279.204C630.011 279.373 629.316 279.679 628.892 279.872C628.467 280.066 627.531 280.522 626.816 280.885C626.097 281.249 625.219 281.729 624.862 281.952C624.505 282.17 623.95 282.528 623.636 282.746C623.318 282.96 622.681 283.449 622.212 283.823C621.657 284.268 621.083 284.792 620.567 285.325C620.002 285.902 619.674 286.29 619.447 286.629C619.269 286.895 619.037 287.288 618.931 287.501C618.825 287.715 618.68 288.044 618.612 288.228C618.54 288.412 618.429 288.761 618.361 289.004C618.26 289.372 618.236 289.575 618.216 290.312C618.197 291 618.207 291.277 618.27 291.621C618.318 291.858 618.429 292.285 618.525 292.566C618.617 292.847 618.781 293.249 618.887 293.463C618.993 293.676 619.201 294.034 619.351 294.262C619.495 294.49 619.751 294.839 619.915 295.038C620.084 295.236 620.509 295.687 620.861 296.031C621.218 296.38 621.836 296.923 622.232 297.243C622.632 297.563 623.158 297.965 623.4 298.14C623.646 298.314 624.22 298.692 624.678 298.978C625.137 299.264 626.088 299.792 626.792 300.146C627.497 300.505 628.438 300.965 628.892 301.169C629.34 301.377 630.05 301.683 630.46 301.852C630.87 302.017 631.478 302.269 631.811 302.405C632.144 302.54 632.796 302.792 633.259 302.962C633.722 303.127 634.374 303.355 634.707 303.461C635.04 303.568 635.494 303.714 635.72 303.781C635.947 303.844 636.497 304.014 636.951 304.149C637.4 304.285 637.955 304.455 638.182 304.518C638.408 304.586 638.915 304.736 639.316 304.852C639.712 304.969 640.691 305.226 641.488 305.429C642.284 305.628 643.119 305.836 643.346 305.889C643.572 305.943 644.007 306.044 644.311 306.113C644.615 306.185 645.223 306.321 645.662 306.413C646.101 306.505 646.709 306.636 647.013 306.699C647.317 306.767 647.848 306.873 648.196 306.936C648.538 306.999 649.084 307.096 649.402 307.15C649.721 307.203 650.305 307.3 650.705 307.368C651.101 307.436 651.656 307.523 651.936 307.562C652.216 307.605 652.867 307.693 653.384 307.76C653.9 307.828 654.682 307.925 655.121 307.978C655.56 308.027 656.221 308.104 656.593 308.143C656.965 308.187 657.626 308.264 658.065 308.318C658.504 308.371 659.329 308.453 659.899 308.507C660.468 308.56 661.144 308.618 661.395 308.633C661.646 308.647 662.514 308.715 663.325 308.783C664.136 308.846 665.164 308.933 665.617 308.972C666.066 309.011 666.708 309.055 667.041 309.069C667.374 309.083 668.339 309.127 669.189 309.166C670.038 309.205 671.134 309.263 671.626 309.287C672.118 309.311 673.407 309.36 674.497 309.394C676.037 309.437 676.925 309.437 678.503 309.389C679.618 309.36 680.911 309.311 681.374 309.287C681.838 309.258 682.924 309.205 683.788 309.166C684.651 309.127 685.636 309.083 685.984 309.069C686.326 309.055 686.958 309.011 687.383 308.972C687.808 308.933 688.57 308.865 689.072 308.827C689.574 308.788 690.573 308.71 691.292 308.657C692.006 308.604 693.116 308.507 693.753 308.439C694.39 308.371 695.206 308.284 695.563 308.245C695.92 308.206 696.485 308.138 696.818 308.1C697.151 308.061 697.962 307.959 698.628 307.881C699.289 307.799 700.225 307.678 700.703 307.61C701.18 307.542 702.266 307.368 703.116 307.227C703.965 307.082 704.834 306.931 705.046 306.893C705.259 306.854 705.693 306.762 706.011 306.694C706.33 306.621 706.798 306.524 707.049 306.471C707.3 306.418 707.758 306.321 708.062 306.253C708.367 306.185 709.25 305.977 710.017 305.793C710.784 305.609 711.831 305.352 712.334 305.221C712.835 305.09 713.448 304.925 713.685 304.852C713.921 304.784 714.814 304.518 715.663 304.266C716.513 304.009 717.652 303.66 718.197 303.486C718.742 303.311 719.524 303.04 719.934 302.889C720.345 302.734 720.933 302.507 721.237 302.38C721.542 302.255 722.13 302.017 722.541 301.847C722.951 301.678 723.703 301.353 724.205 301.12C724.707 300.893 725.663 300.422 726.329 300.083C726.99 299.739 727.743 299.337 727.994 299.182C728.245 299.031 728.722 298.726 729.055 298.503C729.388 298.285 729.857 297.955 730.093 297.771C730.33 297.592 730.778 297.238 731.083 296.986C731.386 296.734 731.975 296.186 732.386 295.77C732.815 295.333 733.274 294.815 733.457 294.553C733.635 294.301 733.911 293.831 734.07 293.511C734.224 293.191 734.398 292.799 734.451 292.639C734.504 292.479 734.601 292.164 734.659 291.936C734.76 291.567 734.77 291.412 734.77 290.53C734.774 289.605 734.765 289.503 734.644 289.052C734.572 288.785 734.456 288.422 734.388 288.238C734.321 288.058 734.176 287.734 734.07 287.511C733.959 287.293 733.718 286.886 733.529 286.605C733.269 286.222 732.969 285.878 732.313 285.218C731.816 284.714 731.145 284.108 730.745 283.789C730.359 283.478 729.847 283.091 729.611 282.916C729.374 282.746 728.848 282.398 728.452 282.151C728.052 281.898 727.294 281.462 726.763 281.186C726.232 280.909 725.504 280.536 725.146 280.367C724.79 280.192 724.181 279.911 723.795 279.737C723.409 279.562 722.835 279.315 722.516 279.189C722.198 279.058 721.667 278.84 721.334 278.704C721.001 278.564 720.591 278.399 720.417 278.336C720.243 278.268 719.635 278.05 719.066 277.852C718.496 277.653 717.483 277.328 716.822 277.129C716.156 276.935 715.519 276.742 715.398 276.703C715.277 276.664 714.693 276.485 714.095 276.31C713.496 276.135 712.705 275.918 712.334 275.825C711.962 275.733 711.397 275.593 711.079 275.51C710.76 275.428 709.805 275.195 708.955 275.001C708.106 274.803 707.314 274.628 707.194 274.609C707.073 274.59 706.865 274.546 706.735 274.512C706.6 274.473 706.277 274.4 706.011 274.347C705.746 274.294 705.104 274.173 704.588 274.076C704.071 273.984 703.463 273.872 703.236 273.833C703.01 273.795 702.488 273.708 702.078 273.64C701.668 273.576 701.017 273.475 700.63 273.421C700.244 273.368 699.67 273.295 699.352 273.252C699.033 273.213 698.227 273.116 697.566 273.034C696.9 272.956 696.065 272.859 695.708 272.816C695.351 272.777 694.545 272.69 693.922 272.622C693.299 272.554 692.214 272.457 691.509 272.404C690.805 272.35 689.675 272.263 689 272.21C688.324 272.156 687.552 272.093 687.286 272.064C687.021 272.04 686.302 271.996 685.694 271.968C685.081 271.943 684.386 271.909 684.149 271.895C683.913 271.88 683.247 271.846 682.678 271.817C682.108 271.793 680.868 271.74 679.927 271.701C678.986 271.662 677.335 271.633 676.259 271.638C675.183 271.638 673.889 271.657 673.388 271.681C672.881 271.701 671.968 271.74 671.361 271.769ZM667.5 314.013C667.896 314.783 668.663 316.281 669.213 317.333C669.763 318.384 670.641 320.086 671.167 321.113C671.689 322.141 672.273 323.275 672.456 323.633C672.644 323.992 672.876 324.438 672.977 324.627C673.079 324.811 673.426 325.48 673.749 326.105C674.078 326.73 674.57 327.69 674.85 328.238C675.125 328.786 675.448 329.406 675.559 329.619C675.67 329.832 675.907 330.283 676.085 330.622C676.259 330.966 676.433 331.257 676.462 331.276C676.5 331.296 676.553 331.262 676.597 331.194C676.635 331.131 676.833 330.763 677.036 330.375C677.239 329.987 677.726 329.033 678.126 328.262C678.522 327.491 679.106 326.367 679.415 325.766C679.729 325.165 680.091 324.477 680.216 324.239C680.342 324.002 681.027 322.669 681.737 321.283C682.446 319.896 683.479 317.9 684.029 316.848C684.574 315.796 685.293 314.41 685.621 313.77C686.051 312.922 686.205 312.583 686.181 312.51C686.147 312.413 686.119 312.413 685.052 312.452C684.449 312.472 683.532 312.515 683.015 312.544C682.403 312.583 680.168 312.602 676.573 312.602C672.914 312.602 670.69 312.588 669.937 312.549C669.314 312.515 668.364 312.472 667.833 312.457C666.906 312.423 666.858 312.428 666.819 312.515C666.79 312.583 666.959 312.956 667.5 314.013ZM677.055 273.741C678.846 273.756 680.81 273.795 681.544 273.833C682.258 273.867 683.628 273.925 684.584 273.955C685.539 273.984 686.625 274.032 686.997 274.056C687.369 274.085 687.933 274.119 688.252 274.129C688.57 274.143 688.879 274.163 688.937 274.173C689.009 274.187 689.125 274.318 689.26 274.522C689.376 274.706 689.675 275.263 689.926 275.772C690.177 276.276 690.722 277.347 691.142 278.147C691.562 278.947 692.035 279.829 692.185 280.11C692.339 280.391 692.619 280.924 692.812 281.297C693.005 281.671 693.536 282.674 693.995 283.527C694.453 284.38 694.955 285.33 695.114 285.635C695.273 285.94 695.64 286.648 695.925 287.21C696.21 287.768 696.678 288.655 696.963 289.173C697.247 289.692 697.527 290.21 697.686 290.53L697.281 291.267C697.059 291.674 696.639 292.464 696.35 293.026C696.055 293.589 695.529 294.601 695.177 295.28C694.825 295.959 694.26 297.03 693.922 297.655C693.584 298.28 693.237 298.935 693.15 299.109C693.058 299.283 692.58 300.185 692.088 301.12C691.591 302.051 691.06 303.054 690.906 303.35C690.752 303.646 690.312 304.494 689.931 305.24C689.55 305.986 689.173 306.66 689.096 306.743C688.951 306.888 688.947 306.888 688.237 306.917C687.846 306.936 687.127 306.975 686.635 307.004C686.142 307.029 685.013 307.077 684.125 307.106C683.237 307.135 681.915 307.193 681.191 307.232C680.298 307.276 678.797 307.3 676.5 307.3C674.198 307.3 672.702 307.276 671.805 307.232C671.086 307.193 669.744 307.135 668.827 307.106C667.91 307.077 666.781 307.029 666.318 306.999C665.854 306.97 665.149 306.936 664.039 306.888L663.861 306.689C663.764 306.583 663.436 305.996 663.113 305.356C662.799 304.731 662.148 303.481 661.67 302.574C661.197 301.668 660.671 300.675 660.507 300.369C660.343 300.064 660.121 299.647 660.02 299.448C659.918 299.25 659.464 298.397 659.016 297.558C658.567 296.72 657.838 295.333 657.399 294.481C656.965 293.627 656.347 292.459 656.033 291.887C655.724 291.315 655.43 290.768 655.304 290.506L655.685 289.803C655.898 289.415 656.134 288.989 656.207 288.858C656.279 288.722 656.665 287.981 657.061 287.21C657.462 286.435 657.891 285.606 658.017 285.368C658.142 285.126 658.398 284.646 658.581 284.302C658.77 283.953 659.17 283.202 659.474 282.63C659.778 282.058 660.15 281.36 660.295 281.079C660.439 280.798 661.038 279.664 661.622 278.559C662.206 277.454 662.915 276.087 663.195 275.53C663.48 274.968 663.769 274.435 663.991 274.173L664.609 274.143C664.951 274.129 665.569 274.09 665.98 274.061C666.39 274.032 667.475 273.984 668.392 273.955C669.31 273.925 670.772 273.872 671.65 273.828C672.524 273.79 673.383 273.751 673.556 273.741C673.73 273.732 675.303 273.732 677.055 273.741ZM691.818 274.556C691.9 274.57 692.165 274.595 692.402 274.609C692.638 274.623 693.141 274.667 693.512 274.706C693.884 274.75 694.535 274.813 694.96 274.851C695.385 274.89 696.157 274.968 696.673 275.021C697.189 275.074 697.928 275.161 698.314 275.22C698.7 275.273 699.371 275.37 699.81 275.438C700.249 275.505 701.084 275.636 701.668 275.728C702.252 275.82 703.111 275.966 703.574 276.043C704.037 276.126 704.573 276.218 704.756 276.257C704.94 276.295 705.408 276.383 705.794 276.455C706.436 276.577 706.504 276.601 706.639 276.737C706.721 276.824 707.126 277.565 707.551 278.389C707.971 279.218 708.477 280.207 708.68 280.594C708.878 280.982 709.259 281.699 709.525 282.194C709.79 282.688 710.205 283.459 710.451 283.915C710.697 284.365 711.021 284.976 711.175 285.272C711.33 285.563 711.788 286.415 712.189 287.162C712.594 287.908 713.144 288.95 713.414 289.474C713.68 290.002 713.902 290.467 713.902 290.506C713.902 290.545 713.685 291.01 713.424 291.534C713.159 292.062 712.792 292.765 712.609 293.099C712.425 293.434 712.001 294.228 711.658 294.868C711.32 295.508 710.616 296.826 710.09 297.8C709.568 298.775 709.003 299.831 708.835 300.151C708.67 300.471 708.183 301.421 707.758 302.259C707.334 303.098 706.914 303.907 706.832 304.052C706.745 304.198 706.644 304.344 706.61 304.377C706.571 304.406 706.335 304.479 706.084 304.532C705.833 304.586 705.21 304.707 704.708 304.799C704.206 304.891 703.323 305.046 702.754 305.138C702.184 305.231 701.446 305.352 701.113 305.405C700.78 305.458 700.153 305.555 699.713 305.623C699.274 305.691 698.502 305.802 698 305.866C697.498 305.933 696.745 306.021 696.335 306.064C695.925 306.108 695.23 306.171 694.791 306.209C694.352 306.248 693.724 306.316 693.391 306.355C693.058 306.394 692.513 306.442 692.175 306.466C691.591 306.5 691.562 306.496 691.528 306.403C691.504 306.331 691.697 305.909 692.233 304.852C692.638 304.052 693.198 302.952 693.478 302.405C693.758 301.857 694.158 301.096 694.371 300.708C694.583 300.321 694.868 299.788 695.008 299.521C695.148 299.255 695.568 298.445 695.939 297.728C696.311 297.006 697.107 295.45 697.711 294.262C698.314 293.075 698.989 291.761 699.212 291.34C699.434 290.923 699.617 290.55 699.617 290.516C699.617 290.487 699.38 290.012 699.091 289.464C698.806 288.917 698.261 287.86 697.879 287.113C697.503 286.367 697.035 285.451 696.842 285.078C696.649 284.705 696.152 283.735 695.732 282.921C695.317 282.107 694.859 281.234 694.719 280.982C694.579 280.73 694.352 280.314 694.216 280.061C694.081 279.809 693.57 278.816 693.082 277.856C692.595 276.897 692.035 275.787 691.837 275.394C691.495 274.701 691.49 274.672 691.577 274.604C691.635 274.565 691.736 274.546 691.818 274.556ZM660.946 274.595C661.303 274.585 661.453 274.604 661.472 274.643C661.487 274.677 660.912 275.859 660.198 277.275C659.484 278.685 658.658 280.279 658.369 280.813C658.079 281.346 657.611 282.228 657.331 282.776C657.052 283.323 656.207 284.981 655.449 286.459C654.691 287.937 653.919 289.445 653.731 289.803C653.538 290.162 653.384 290.492 653.384 290.53C653.384 290.569 653.654 291.117 653.982 291.742C654.315 292.367 655.024 293.753 655.57 294.82C656.11 295.886 656.887 297.403 657.293 298.188C657.698 298.973 658.282 300.088 658.596 300.66C658.905 301.232 659.687 302.744 660.328 304.014C661.057 305.468 661.482 306.364 661.462 306.413C661.438 306.491 661.385 306.496 660.825 306.466C660.488 306.442 659.942 306.394 659.609 306.355C659.276 306.316 658.649 306.248 658.21 306.209C657.771 306.171 657.075 306.108 656.665 306.064C656.255 306.021 655.507 305.933 655 305.87C654.493 305.802 653.876 305.715 653.625 305.676C653.374 305.638 652.819 305.555 652.394 305.487C651.969 305.419 651.212 305.298 650.705 305.216C650.198 305.134 649.615 305.037 649.402 304.998C649.19 304.959 648.645 304.857 648.196 304.78C647.747 304.697 647.168 304.586 646.917 304.532C646.516 304.45 646.439 304.416 646.323 304.281C646.251 304.198 646.034 303.82 645.845 303.447C645.657 303.074 645.073 301.939 644.552 300.927C644.031 299.913 643.481 298.867 643.336 298.6C643.191 298.333 642.766 297.548 642.395 296.855C642.019 296.162 641.396 294.994 641 294.262C640.609 293.531 640.136 292.644 639.953 292.299C639.765 291.95 639.499 291.432 639.359 291.136C639.214 290.84 639.099 290.564 639.099 290.516C639.099 290.472 639.272 290.089 639.48 289.668C639.692 289.251 640.199 288.286 640.609 287.525C641.02 286.765 641.541 285.795 641.763 285.368C641.989 284.942 642.602 283.798 643.128 282.824C643.654 281.85 644.528 280.173 645.073 279.092C645.618 278.011 646.125 277.037 646.202 276.921C646.275 276.809 646.386 276.688 646.444 276.649C646.507 276.61 646.719 276.548 646.917 276.504C647.115 276.465 647.65 276.363 648.099 276.281C648.548 276.199 649.093 276.102 649.306 276.063C649.518 276.024 650.17 275.918 650.754 275.82C651.337 275.728 652.095 275.607 652.442 275.549C652.79 275.496 653.278 275.423 653.529 275.385C653.779 275.346 654.3 275.268 654.687 275.215C655.073 275.161 655.811 275.074 656.328 275.021C656.844 274.968 657.606 274.89 658.017 274.851C658.427 274.813 659.006 274.754 659.296 274.72C659.585 274.691 659.966 274.653 660.14 274.633C660.314 274.614 660.676 274.595 660.946 274.595Z" fill="url(#paint3_linear_1_1183)"/>
</g>
</g>
<defs>
<filter id="filter0_dddddd_1_1183" x="-80" y="-29" width="1157" height="658" filterUnits="userSpaceOnUse" color-interpolation-filters="sRGB">
<feFlood flood-opacity="0" result="BackgroundImageFix"/>
<feColorMatrix in="SourceAlpha" type="matrix" values="0 0 0 0 0 0 0 0 0 0 0 0 0 0 0 0 0 0 127 0" result="hardAlpha"/>
<feOffset dy="1.4113"/>
<feGaussianBlur stdDeviation="1.1069"/>
<feColorMatrix type="matrix" values="0 0 0 0 0.345098 0 0 0 0 0.909804 0 0 0 0 0.733333 0 0 0 0.137761 0"/>
<feBlend mode="normal" in2="BackgroundImageFix" result="effect1_dropShadow_1_1183"/>
<feColorMatrix in="SourceAlpha" type="matrix" values="0 0 0 0 0 0 0 0 0 0 0 0 0 0 0 0 0 0 127 0" result="hardAlpha"/>
<feOffset dy="3.39155"/>
<feGaussianBlur stdDeviation="2.66004"/>
<feColorMatrix type="matrix" values="0 0 0 0 0.345098 0 0 0 0 0.909804 0 0 0 0 0.733333 0 0 0 0.197907 0"/>
<feBlend mode="normal" in2="effect1_dropShadow_1_1183" result="effect2_dropShadow_1_1183"/>
<feColorMatrix in="SourceAlpha" type="matrix" values="0 0 0 0 0 0 0 0 0 0 0 0 0 0 0 0 0 0 127 0" result="hardAlpha"/>
<feOffset dy="6.38599"/>
<feGaussianBlur stdDeviation="5.00862"/>
<feColorMatrix type="matrix" values="0 0 0 0 0.345098 0 0 0 0 0.909804 0 0 0 0 0.733333 0 0 0 0.245 0"/>
<feBlend mode="normal" in2="effect2_dropShadow_1_1183" result="effect3_dropShadow_1_1183"/>
<feColorMatrix in="SourceAlpha" type="matrix" values="0 0 0 0 0 0 0 0 0 0 0 0 0 0 0 0 0 0 127 0" result="hardAlpha"/>
<feOffset dy="11.3915"/>
<feGaussianBlur stdDeviation="8.93452"/>
<feColorMatrix type="matrix" values="0 0 0 0 0.345098 0 0 0 0 0.909804 0 0 0 0 0.733333 0 0 0 0.292093 0"/>
<feBlend mode="normal" in2="effect3_dropShadow_1_1183" result="effect4_dropShadow_1_1183"/>
<feColorMatrix in="SourceAlpha" type="matrix" values="0 0 0 0 0 0 0 0 0 0 0 0 0 0 0 0 0 0 127 0" result="hardAlpha"/>
<feOffset dy="21.3066"/>
<feGaussianBlur stdDeviation="16.711"/>
<feColorMatrix type="matrix" values="0 0 0 0 0.345098 0 0 0 0 0.909804 0 0 0 0 0.733333 0 0 0 0.352239 0"/>
<feBlend mode="normal" in2="effect4_dropShadow_1_1183" result="effect5_dropShadow_1_1183"/>
<feColorMatrix in="SourceAlpha" type="matrix" values="0 0 0 0 0 0 0 0 0 0 0 0 0 0 0 0 0 0 127 0" result="hardAlpha"/>
<feOffset dy="51"/>
<feGaussianBlur stdDeviation="40"/>
<feColorMatrix type="matrix" values="0 0 0 0 0.345098 0 0 0 0 0.909804 0 0 0 0 0.733333 0 0 0 0.49 0"/>
<feBlend mode="normal" in2="effect5_dropShadow_1_1183" result="effect6_dropShadow_1_1183"/>
<feBlend mode="normal" in="SourceGraphic" in2="effect6_dropShadow_1_1183" result="shape"/>
</filter>
<filter id="filter1_f_1_1183" x="344" y="-100" width="665" height="725" filterUnits="userSpaceOnUse" color-interpolation-filters="sRGB">
<feFlood flood-opacity="0" result="BackgroundImageFix"/>
<feBlend mode="normal" in="SourceGraphic" in2="BackgroundImageFix" result="shape"/>
<feGaussianBlur stdDeviation="50" result="effect1_foregroundBlur_1_1183"/>
</filter>
<linearGradient id="paint0_linear_1_1183" x1="1142" y1="751" x2="1142" y2="586" gradientUnits="userSpaceOnUse">
<stop/>
<stop offset="1" stop-opacity="0"/>
</linearGradient>
<linearGradient id="paint1_linear_1_1183" x1="343" y1="538" x2="559.5" y2="78.5" gradientUnits="userSpaceOnUse">
<stop/>
<stop offset="1" stop-opacity="0"/>
</linearGradient>
<linearGradient id="paint2_linear_1_1183" x1="675.343" y1="1.40054e-08" x2="678.292" y2="524.996" gradientUnits="userSpaceOnUse">
<stop stop-color="#58E8BB" stop-opacity="0.3"/>
<stop offset="1" stop-color="#58E8BB" stop-opacity="0"/>
</linearGradient>
<linearGradient id="paint3_linear_1_1183" x1="676.5" y1="216" x2="676.5" y2="365" gradientUnits="userSpaceOnUse">
<stop offset="0.259615" stop-color="#58E8BB"/>
<stop offset="1" stop-color="#58E8BB" stop-opacity="0.15"/>
</linearGradient>
<clipPath id="clip0_1_1183">
<rect width="1003" height="586" fill="white"/>
</clipPath>
<clipPath id="clip1_1_1183">
<rect width="997" height="498" fill="white"/>
</clipPath>
<clipPath id="clip2_1_1183">
<rect width="155" height="149" fill="white" transform="translate(599 216)"/>
</clipPath>
</defs>
</svg>
